<?xml version="1.0" encoding="UTF-8" standalone="no"?>
<svg
   xmlns:dc="http://purl.org/dc/elements/1.1/"
   xmlns:cc="http://creativecommons.org/ns#"
   xmlns:rdf="http://www.w3.org/1999/02/22-rdf-syntax-ns#"
   xmlns:svg="http://www.w3.org/2000/svg"
   xmlns="http://www.w3.org/2000/svg"
   xmlns:sodipodi="http://sodipodi.sourceforge.net/DTD/sodipodi-0.dtd"
   xmlns:inkscape="http://www.inkscape.org/namespaces/inkscape"
   color-interpolation="auto"
   color-rendering="auto"
   font-size="12"
   font-style="normal"
   font-weight="normal"
   image-rendering="auto"
   shape-rendering="auto"
   stroke-miterlimit="10"
   text-rendering="auto"
   id="svg2"
   version="1.1"
   inkscape:version="0.48.3.1 r9886"
   width="497"
   height="329"
   sodipodi:docname="gbm_tcga.svg"
   style="font-size:12px;font-style:normal;font-weight:normal;fill:#000000;fill-opacity:1;stroke:#000000;stroke-width:1;stroke-linecap:square;stroke-linejoin:miter;stroke-miterlimit:10;stroke-opacity:1;stroke-dasharray:none;stroke-dashoffset:0;font-family:Dialog">
  <metadata
     id="metadata600">
    <rdf:RDF>
      <cc:Work
         rdf:about="">
        <dc:format>image/svg+xml</dc:format>
        <dc:type
           rdf:resource="http://purl.org/dc/dcmitype/StillImage" />
      </cc:Work>
    </rdf:RDF>
  </metadata>
  <sodipodi:namedview
     pagecolor="#ffffff"
     bordercolor="#666666"
     borderopacity="1"
     objecttolerance="10"
     gridtolerance="10"
     guidetolerance="10"
     inkscape:pageopacity="0"
     inkscape:pageshadow="2"
     inkscape:window-width="640"
     inkscape:window-height="480"
     id="namedview598"
     showgrid="false"
     fit-margin-top="0"
     fit-margin-left="0"
     fit-margin-right="0"
     fit-margin-bottom="0"
     inkscape:zoom="0.22425739"
     inkscape:cx="312.54724"
     inkscape:cy="-187.68109"
     inkscape:window-x="65"
     inkscape:window-y="24"
     inkscape:window-maximized="0"
     inkscape:current-layer="svg2" />
  <!--Generated by Onotoa with Batik SVG Generator-->
  <defs
     id="genericDefs" />
  <g
     id="g5"
     transform="translate(-59.5,-9.5)">
    <defs
       id="defs1">
      <clipPath
         clipPathUnits="userSpaceOnUse"
         id="clipPath1">
        <path
           d="m 212,76 42,0 0,22 -42,0 0,-22 z"
           id="path9"
           inkscape:connector-curvature="0" />
      </clipPath>
      <clipPath
         clipPathUnits="userSpaceOnUse"
         id="clipPath2">
        <path
           d="m 211,75 44,0 0,24 -44,0 0,-24 z"
           id="path12"
           inkscape:connector-curvature="0" />
      </clipPath>
      <clipPath
         clipPathUnits="userSpaceOnUse"
         id="clipPath3">
        <path
           d="m 297,123 50,0 0,22 -50,0 0,-22 z"
           id="path15"
           inkscape:connector-curvature="0" />
      </clipPath>
      <clipPath
         clipPathUnits="userSpaceOnUse"
         id="clipPath4">
        <path
           d="m 296,122 52,0 0,24 -52,0 0,-24 z"
           id="path18"
           inkscape:connector-curvature="0" />
      </clipPath>
      <clipPath
         clipPathUnits="userSpaceOnUse"
         id="clipPath5">
        <path
           d="m 150,17 51,0 0,22 -51,0 0,-22 z"
           id="path21"
           inkscape:connector-curvature="0" />
      </clipPath>
      <clipPath
         clipPathUnits="userSpaceOnUse"
         id="clipPath6">
        <path
           d="m 149,16 53,0 0,24 -53,0 0,-24 z"
           id="path24"
           inkscape:connector-curvature="0" />
      </clipPath>
      <clipPath
         clipPathUnits="userSpaceOnUse"
         id="clipPath7">
        <path
           d="m 200,147 42,0 0,22 -42,0 0,-22 z"
           id="path27"
           inkscape:connector-curvature="0" />
      </clipPath>
      <clipPath
         clipPathUnits="userSpaceOnUse"
         id="clipPath8">
        <path
           d="m 199,146 44,0 0,24 -44,0 0,-24 z"
           id="path30"
           inkscape:connector-curvature="0" />
      </clipPath>
      <clipPath
         clipPathUnits="userSpaceOnUse"
         id="clipPath9">
        <path
           d="m 271,195 42,0 0,22 -42,0 0,-22 z"
           id="path33"
           inkscape:connector-curvature="0" />
      </clipPath>
      <clipPath
         clipPathUnits="userSpaceOnUse"
         id="clipPath10">
        <path
           d="m 270,194 44,0 0,24 -44,0 0,-24 z"
           id="path36"
           inkscape:connector-curvature="0" />
      </clipPath>
      <clipPath
         clipPathUnits="userSpaceOnUse"
         id="clipPath11">
        <path
           d="m 345,75 44,0 0,22 -44,0 0,-22 z"
           id="path39"
           inkscape:connector-curvature="0" />
      </clipPath>
      <clipPath
         clipPathUnits="userSpaceOnUse"
         id="clipPath12">
        <path
           d="m 344,74 46,0 0,24 -46,0 0,-24 z"
           id="path42"
           inkscape:connector-curvature="0" />
      </clipPath>
      <clipPath
         clipPathUnits="userSpaceOnUse"
         id="clipPath13">
        <path
           d="m 351,173 42,0 0,22 -42,0 0,-22 z"
           id="path45"
           inkscape:connector-curvature="0" />
      </clipPath>
      <clipPath
         clipPathUnits="userSpaceOnUse"
         id="clipPath14">
        <path
           d="m 350,172 44,0 0,24 -44,0 0,-24 z"
           id="path48"
           inkscape:connector-curvature="0" />
      </clipPath>
      <clipPath
         clipPathUnits="userSpaceOnUse"
         id="clipPath15">
        <path
           d="m 299,9 42,0 0,22 -42,0 0,-22 z"
           id="path51"
           inkscape:connector-curvature="0" />
      </clipPath>
      <clipPath
         clipPathUnits="userSpaceOnUse"
         id="clipPath16">
        <path
           d="m 298,8 44,0 0,24 -44,0 0,-24 z"
           id="path54"
           inkscape:connector-curvature="0" />
      </clipPath>
      <clipPath
         clipPathUnits="userSpaceOnUse"
         id="clipPath17">
        <path
           d="m 416,135 42,0 0,22 -42,0 0,-22 z"
           id="path57"
           inkscape:connector-curvature="0" />
      </clipPath>
      <clipPath
         clipPathUnits="userSpaceOnUse"
         id="clipPath18">
        <path
           d="m 415,134 44,0 0,24 -44,0 0,-24 z"
           id="path60"
           inkscape:connector-curvature="0" />
      </clipPath>
      <clipPath
         clipPathUnits="userSpaceOnUse"
         id="clipPath19">
        <path
           d="m 59,66 42,0 0,22 -42,0 0,-22 z"
           id="path63"
           inkscape:connector-curvature="0" />
      </clipPath>
      <clipPath
         clipPathUnits="userSpaceOnUse"
         id="clipPath20">
        <path
           d="m 58,65 44,0 0,24 -44,0 0,-24 z"
           id="path66"
           inkscape:connector-curvature="0" />
      </clipPath>
      <clipPath
         clipPathUnits="userSpaceOnUse"
         id="clipPath21">
        <path
           d="m 75,138 42,0 0,22 -42,0 0,-22 z"
           id="path69"
           inkscape:connector-curvature="0" />
      </clipPath>
      <clipPath
         clipPathUnits="userSpaceOnUse"
         id="clipPath22">
        <path
           d="m 74,137 44,0 0,24 -44,0 0,-24 z"
           id="path72"
           inkscape:connector-curvature="0" />
      </clipPath>
      <clipPath
         clipPathUnits="userSpaceOnUse"
         id="clipPath23">
        <path
           d="m 62,211 42,0 0,22 -42,0 0,-22 z"
           id="path75"
           inkscape:connector-curvature="0" />
      </clipPath>
      <clipPath
         clipPathUnits="userSpaceOnUse"
         id="clipPath24">
        <path
           d="m 61,210 44,0 0,24 -44,0 0,-24 z"
           id="path78"
           inkscape:connector-curvature="0" />
      </clipPath>
      <clipPath
         clipPathUnits="userSpaceOnUse"
         id="clipPath25">
        <path
           d="m 382,244 42,0 0,22 -42,0 0,-22 z"
           id="path81"
           inkscape:connector-curvature="0" />
      </clipPath>
      <clipPath
         clipPathUnits="userSpaceOnUse"
         id="clipPath26">
        <path
           d="m 381,243 44,0 0,24 -44,0 0,-24 z"
           id="path84"
           inkscape:connector-curvature="0" />
      </clipPath>
      <clipPath
         clipPathUnits="userSpaceOnUse"
         id="clipPath27">
        <path
           d="m 386,317 42,0 0,22 -42,0 0,-22 z"
           id="path87"
           inkscape:connector-curvature="0" />
      </clipPath>
      <clipPath
         clipPathUnits="userSpaceOnUse"
         id="clipPath28">
        <path
           d="m 385,316 44,0 0,24 -44,0 0,-24 z"
           id="path90"
           inkscape:connector-curvature="0" />
      </clipPath>
      <clipPath
         clipPathUnits="userSpaceOnUse"
         id="clipPath29">
        <path
           d="m 412,86 42,0 0,22 -42,0 0,-22 z"
           id="path93"
           inkscape:connector-curvature="0" />
      </clipPath>
      <clipPath
         clipPathUnits="userSpaceOnUse"
         id="clipPath30">
        <path
           d="m 411,85 44,0 0,24 -44,0 0,-24 z"
           id="path96"
           inkscape:connector-curvature="0" />
      </clipPath>
      <clipPath
         clipPathUnits="userSpaceOnUse"
         id="clipPath31">
        <path
           d="m 508,105 49,0 0,22 -49,0 0,-22 z"
           id="path99"
           inkscape:connector-curvature="0" />
      </clipPath>
      <clipPath
         clipPathUnits="userSpaceOnUse"
         id="clipPath32">
        <path
           d="m 507,104 51,0 0,24 -51,0 0,-24 z"
           id="path102"
           inkscape:connector-curvature="0" />
      </clipPath>
      <clipPath
         clipPathUnits="userSpaceOnUse"
         id="clipPath33">
        <path
           d="m 391,9 50,0 0,22 -50,0 0,-22 z"
           id="path105"
           inkscape:connector-curvature="0" />
      </clipPath>
      <clipPath
         clipPathUnits="userSpaceOnUse"
         id="clipPath34">
        <path
           d="m 390,8 52,0 0,24 -52,0 0,-24 z"
           id="path108"
           inkscape:connector-curvature="0" />
      </clipPath>
      <clipPath
         clipPathUnits="userSpaceOnUse"
         id="clipPath35">
        <path
           d="m 141,287 42,0 0,22 -42,0 0,-22 z"
           id="path111"
           inkscape:connector-curvature="0" />
      </clipPath>
      <clipPath
         clipPathUnits="userSpaceOnUse"
         id="clipPath36">
        <path
           d="m 140,286 44,0 0,24 -44,0 0,-24 z"
           id="path114"
           inkscape:connector-curvature="0" />
      </clipPath>
      <clipPath
         clipPathUnits="userSpaceOnUse"
         id="clipPath37">
        <path
           d="m 155,213 42,0 0,22 -42,0 0,-22 z"
           id="path117"
           inkscape:connector-curvature="0" />
      </clipPath>
      <clipPath
         clipPathUnits="userSpaceOnUse"
         id="clipPath38">
        <path
           d="m 154,212 44,0 0,24 -44,0 0,-24 z"
           id="path120"
           inkscape:connector-curvature="0" />
      </clipPath>
      <clipPath
         clipPathUnits="userSpaceOnUse"
         id="clipPath39">
        <path
           d="m 251,96 53,0 0,29 -53,0 0,-29 z"
           id="path123"
           inkscape:connector-curvature="0" />
      </clipPath>
      <clipPath
         clipPathUnits="userSpaceOnUse"
         id="clipPath40">
        <path
           d="m 293,116 11,0 0,9 -11,0 0,-9 z"
           id="path126"
           inkscape:connector-curvature="0" />
      </clipPath>
      <clipPath
         clipPathUnits="userSpaceOnUse"
         id="clipPath41">
        <path
           d="m 184,37 40,0 0,41 -40,0 0,-41 z"
           id="path129"
           inkscape:connector-curvature="0" />
      </clipPath>
      <clipPath
         clipPathUnits="userSpaceOnUse"
         id="clipPath42">
        <path
           d="m 214,68 10,0 0,10 -10,0 0,-10 z"
           id="path132"
           inkscape:connector-curvature="0" />
      </clipPath>
      <clipPath
         clipPathUnits="userSpaceOnUse"
         id="clipPath43">
        <path
           d="m 221,96 14,0 0,53 -14,0 0,-53 z"
           id="path135"
           inkscape:connector-curvature="0" />
      </clipPath>
      <clipPath
         clipPathUnits="userSpaceOnUse"
         id="clipPath44">
        <path
           d="m 226,96 9,0 0,10 -9,0 0,-10 z"
           id="path138"
           inkscape:connector-curvature="0" />
      </clipPath>
      <clipPath
         clipPathUnits="userSpaceOnUse"
         id="clipPath45">
        <path
           d="m 240,138 59,0 0,18 -59,0 0,-18 z"
           id="path141"
           inkscape:connector-curvature="0" />
      </clipPath>
      <clipPath
         clipPathUnits="userSpaceOnUse"
         id="clipPath46">
        <path
           d="m 240,147 11,0 0,9 -11,0 0,-9 z"
           id="path144"
           inkscape:connector-curvature="0" />
      </clipPath>
      <clipPath
         clipPathUnits="userSpaceOnUse"
         id="clipPath47">
        <path
           d="m 295,143 24,0 0,54 -24,0 0,-54 z"
           id="path147"
           inkscape:connector-curvature="0" />
      </clipPath>
      <clipPath
         clipPathUnits="userSpaceOnUse"
         id="clipPath48">
        <path
           d="m 295,186 8,0 0,11 -8,0 0,-11 z"
           id="path150"
           inkscape:connector-curvature="0" />
      </clipPath>
      <clipPath
         clipPathUnits="userSpaceOnUse"
         id="clipPath49">
        <path
           d="m 331,95 28,0 0,30 -28,0 0,-30 z"
           id="path153"
           inkscape:connector-curvature="0" />
      </clipPath>
      <clipPath
         clipPathUnits="userSpaceOnUse"
         id="clipPath50">
        <path
           d="m 349,95 10,0 0,10 -10,0 0,-10 z"
           id="path156"
           inkscape:connector-curvature="0" />
      </clipPath>
      <clipPath
         clipPathUnits="userSpaceOnUse"
         id="clipPath51">
        <path
           d="m 333,143 32,0 0,32 -32,0 0,-32 z"
           id="path159"
           inkscape:connector-curvature="0" />
      </clipPath>
      <clipPath
         clipPathUnits="userSpaceOnUse"
         id="clipPath52">
        <path
           d="m 355,165 10,0 0,10 -10,0 0,-10 z"
           id="path162"
           inkscape:connector-curvature="0" />
      </clipPath>
      <clipPath
         clipPathUnits="userSpaceOnUse"
         id="clipPath53">
        <path
           d="m 345,132 73,0 0,15 -73,0 0,-15 z"
           id="path165"
           inkscape:connector-curvature="0" />
      </clipPath>
      <clipPath
         clipPathUnits="userSpaceOnUse"
         id="clipPath54">
        <path
           d="m 408,138 10,0 0,9 -10,0 0,-9 z"
           id="path168"
           inkscape:connector-curvature="0" />
      </clipPath>
      <clipPath
         clipPathUnits="userSpaceOnUse"
         id="clipPath55">
        <path
           d="m 345,101 69,0 0,26 -69,0 0,-26 z"
           id="path171"
           inkscape:connector-curvature="0" />
      </clipPath>
      <clipPath
         clipPathUnits="userSpaceOnUse"
         id="clipPath56">
        <path
           d="m 403,101 11,0 0,9 -11,0 0,-9 z"
           id="path174"
           inkscape:connector-curvature="0" />
      </clipPath>
      <clipPath
         clipPathUnits="userSpaceOnUse"
         id="clipPath57">
        <path
           d="m 329,143 31,0 0,33 -31,0 0,-33 z"
           id="path177"
           inkscape:connector-curvature="0" />
      </clipPath>
      <clipPath
         clipPathUnits="userSpaceOnUse"
         id="clipPath58">
        <path
           d="m 329,143 10,0 0,10 -10,0 0,-10 z"
           id="path180"
           inkscape:connector-curvature="0" />
      </clipPath>
      <clipPath
         clipPathUnits="userSpaceOnUse"
         id="clipPath59">
        <path
           d="m 239,166 42,0 0,31 -42,0 0,-31 z"
           id="path183"
           inkscape:connector-curvature="0" />
      </clipPath>
      <clipPath
         clipPathUnits="userSpaceOnUse"
         id="clipPath60">
        <path
           d="m 271,187 10,0 0,10 -10,0 0,-10 z"
           id="path186"
           inkscape:connector-curvature="0" />
      </clipPath>
      <clipPath
         clipPathUnits="userSpaceOnUse"
         id="clipPath61">
        <path
           d="m 182,167 33,0 0,48 -33,0 0,-48 z"
           id="path189"
           inkscape:connector-curvature="0" />
      </clipPath>
      <clipPath
         clipPathUnits="userSpaceOnUse"
         id="clipPath62">
        <path
           d="m 182,205 9,0 0,10 -9,0 0,-10 z"
           id="path192"
           inkscape:connector-curvature="0" />
      </clipPath>
      <clipPath
         clipPathUnits="userSpaceOnUse"
         id="clipPath63">
        <path
           d="m 231,167 42,0 0,32 -42,0 0,-32 z"
           id="path195"
           inkscape:connector-curvature="0" />
      </clipPath>
      <clipPath
         clipPathUnits="userSpaceOnUse"
         id="clipPath64">
        <path
           d="m 231,167 10,0 0,10 -10,0 0,-10 z"
           id="path198"
           inkscape:connector-curvature="0" />
      </clipPath>
      <clipPath
         clipPathUnits="userSpaceOnUse"
         id="clipPath65">
        <path
           d="m 366,95 10,0 0,80 -10,0 0,-80 z"
           id="path201"
           inkscape:connector-curvature="0" />
      </clipPath>
      <clipPath
         clipPathUnits="userSpaceOnUse"
         id="clipPath66">
        <path
           d="m 367,165 9,0 0,10 -9,0 0,-10 z"
           id="path204"
           inkscape:connector-curvature="0" />
      </clipPath>
      <clipPath
         clipPathUnits="userSpaceOnUse"
         id="clipPath67">
        <path
           d="m 326,29 35,0 0,48 -35,0 0,-48 z"
           id="path207"
           inkscape:connector-curvature="0" />
      </clipPath>
      <clipPath
         clipPathUnits="userSpaceOnUse"
         id="clipPath68">
        <path
           d="m 351,67 10,0 0,10 -10,0 0,-10 z"
           id="path210"
           inkscape:connector-curvature="0" />
      </clipPath>
      <clipPath
         clipPathUnits="userSpaceOnUse"
         id="clipPath69">
        <path
           d="m 373,29 37,0 0,48 -37,0 0,-48 z"
           id="path213"
           inkscape:connector-curvature="0" />
      </clipPath>
      <clipPath
         clipPathUnits="userSpaceOnUse"
         id="clipPath70">
        <path
           d="m 373,67 10,0 0,10 -10,0 0,-10 z"
           id="path216"
           inkscape:connector-curvature="0" />
      </clipPath>
      <clipPath
         clipPathUnits="userSpaceOnUse"
         id="clipPath71">
        <path
           d="m 375,193 25,0 0,53 -25,0 0,-53 z"
           id="path219"
           inkscape:connector-curvature="0" />
      </clipPath>
      <clipPath
         clipPathUnits="userSpaceOnUse"
         id="clipPath72">
        <path
           d="m 391,235 9,0 0,11 -9,0 0,-11 z"
           id="path222"
           inkscape:connector-curvature="0" />
      </clipPath>
      <clipPath
         clipPathUnits="userSpaceOnUse"
         id="clipPath73">
        <path
           d="m 389,155 32,0 0,20 -32,0 0,-20 z"
           id="path225"
           inkscape:connector-curvature="0" />
      </clipPath>
      <clipPath
         clipPathUnits="userSpaceOnUse"
         id="clipPath74">
        <path
           d="m 389,166 11,0 0,9 -11,0 0,-9 z"
           id="path228"
           inkscape:connector-curvature="0" />
      </clipPath>
      <clipPath
         clipPathUnits="userSpaceOnUse"
         id="clipPath75">
        <path
           d="m 81,86 15,0 0,54 -15,0 0,-54 z"
           id="path231"
           inkscape:connector-curvature="0" />
      </clipPath>
      <clipPath
         clipPathUnits="userSpaceOnUse"
         id="clipPath76">
        <path
           d="m 88,130 8,0 0,10 -8,0 0,-10 z"
           id="path234"
           inkscape:connector-curvature="0" />
      </clipPath>
      <clipPath
         clipPathUnits="userSpaceOnUse"
         id="clipPath77">
        <path
           d="m 83,158 15,0 0,55 -15,0 0,-55 z"
           id="path237"
           inkscape:connector-curvature="0" />
      </clipPath>
      <clipPath
         clipPathUnits="userSpaceOnUse"
         id="clipPath78">
        <path
           d="m 89,158 9,0 0,10 -9,0 0,-10 z"
           id="path240"
           inkscape:connector-curvature="0" />
      </clipPath>
      <clipPath
         clipPathUnits="userSpaceOnUse"
         id="clipPath79">
        <path
           d="m 399,264 9,0 0,55 -9,0 0,-55 z"
           id="path243"
           inkscape:connector-curvature="0" />
      </clipPath>
      <clipPath
         clipPathUnits="userSpaceOnUse"
         id="clipPath80">
        <path
           d="m 399,264 9,0 0,10 -9,0 0,-10 z"
           id="path246"
           inkscape:connector-curvature="0" />
      </clipPath>
      <clipPath
         clipPathUnits="userSpaceOnUse"
         id="clipPath81">
        <path
           d="m 452,98 58,0 0,16 -58,0 0,-16 z"
           id="path249"
           inkscape:connector-curvature="0" />
      </clipPath>
      <clipPath
         clipPathUnits="userSpaceOnUse"
         id="clipPath82">
        <path
           d="m 452,98 10,0 0,9 -10,0 0,-9 z"
           id="path252"
           inkscape:connector-curvature="0" />
      </clipPath>
      <clipPath
         clipPathUnits="userSpaceOnUse"
         id="clipPath83">
        <path
           d="m 163,233 15,0 0,56 -15,0 0,-56 z"
           id="path255"
           inkscape:connector-curvature="0" />
      </clipPath>
      <clipPath
         clipPathUnits="userSpaceOnUse"
         id="clipPath84">
        <path
           d="m 169,233 9,0 0,10 -9,0 0,-10 z"
           id="path258"
           inkscape:connector-curvature="0" />
      </clipPath>
    </defs>
    <g
       font-size="15"
       stroke-miterlimit="0"
       text-rendering="optimizeLegibility"
       id="g260"
       style="font-size:15px;fill:#ffffff;stroke:#ffffff;stroke-linejoin:round;stroke-miterlimit:0;font-family:Ubuntu">
      <rect
         clip-path="url(#clipPath1)"
         height="20"
         rx="5"
         ry="5"
         width="40"
         x="213"
         y="77"
         id="rect262"
         style="stroke:none" />
      <rect
         clip-path="url(#clipPath2)"
         height="20"
         rx="5"
         ry="5"
         width="40"
         x="213"
         y="77"
         id="rect264"
         style="fill:none" />
    </g>
    <g
       font-size="11"
       stroke-miterlimit="0"
       text-rendering="optimizeLegibility"
       id="g266"
       style="font-size:11px;stroke-linejoin:round;stroke-miterlimit:0;font-family:Arial">
      <path
         clip-path="url(#clipPath1)"
         d="m 218.875,91 0,-7.875 1.047,0 0,3.234 4.094,0 0,-3.234 1.046,0 0,7.875 -1.046,0 0,-3.719 -4.094,0 0,3.719 -1.047,0 z m 7.928,0 0,-7.875 3.5,0 q 1.047,0 1.594,0.211 0.547,0.211 0.875,0.75 0.328,0.539 0.328,1.195 0,0.828 -0.539,1.407 -0.539,0.578 -1.68,0.734 0.422,0.187 0.625,0.39 0.469,0.422 0.875,1.047 l 1.36,2.141 -1.297,0 -1.047,-1.641 q -0.453,-0.703 -0.75,-1.078 -0.297,-0.375 -0.531,-0.531 -0.235,-0.156 -0.469,-0.203 -0.188,-0.047 -0.594,-0.047 l -1.203,0 0,3.5 -1.047,0 z m 1.047,-4.406 2.234,0 q 0.719,0 1.125,-0.141 0.407,-0.141 0.61,-0.469 0.203,-0.328 0.203,-0.703 0,-0.562 -0.398,-0.922 Q 231.225,84 230.35,84 l -2.5,0 0,2.594 z m 6.022,4.406 3.031,-7.875 1.11,0 3.234,7.875 -1.187,0 -0.922,-2.391 -3.297,0 -0.86,2.391 -1.109,0 z m 2.266,-3.234 2.672,0 -0.813,-2.188 q -0.375,-0.984 -0.562,-1.625 -0.157,0.75 -0.422,1.5 l -0.875,2.313 z m 5.587,0.703 0.984,-0.078 q 0.062,0.578 0.32,0.961 0.258,0.382 0.789,0.617 0.532,0.234 1.203,0.234 0.61,0 1.063,-0.18 0.453,-0.179 0.68,-0.484 0.226,-0.305 0.226,-0.68 0,-0.375 -0.219,-0.648 -0.218,-0.273 -0.718,-0.461 -0.313,-0.125 -1.399,-0.383 -1.086,-0.258 -1.523,-0.492 -0.563,-0.297 -0.836,-0.734 -0.274,-0.438 -0.274,-0.985 0,-0.594 0.336,-1.109 0.336,-0.516 0.985,-0.789 0.648,-0.274 1.445,-0.274 0.875,0 1.547,0.289 0.672,0.289 1.031,0.836 0.36,0.547 0.391,1.235 l -1,0.078 q -0.078,-0.75 -0.547,-1.133 -0.469,-0.383 -1.375,-0.383 -0.938,0 -1.375,0.352 -0.438,0.351 -0.438,0.836 0,0.422 0.313,0.703 0.297,0.265 1.57,0.555 1.274,0.289 1.742,0.507 0.688,0.313 1.016,0.797 0.328,0.485 0.328,1.125 0,0.625 -0.359,1.18 -0.36,0.555 -1.039,0.867 -0.68,0.313 -1.524,0.313 -1.062,0 -1.781,-0.313 -0.719,-0.312 -1.133,-0.937 -0.414,-0.625 -0.429,-1.422 z"
         id="path268"
         inkscape:connector-curvature="0"
         style="stroke:none" />
    </g>
    <g
       font-size="15"
       stroke-miterlimit="0"
       text-rendering="optimizeLegibility"
       id="g270"
       style="font-size:15px;fill:#ffa6a6;stroke:#ffa6a6;stroke-linejoin:round;stroke-miterlimit:0;font-family:Ubuntu">
      <rect
         clip-path="url(#clipPath3)"
         height="20"
         rx="5"
         ry="5"
         width="48"
         x="298"
         y="124"
         id="rect272"
         style="stroke:none" />
      <rect
         clip-path="url(#clipPath4)"
         height="20"
         rx="5"
         ry="5"
         width="48"
         x="298"
         y="124"
         id="rect274"
         style="fill:none;stroke:#0e7082" />
    </g>
    <g
       font-size="11"
       stroke-miterlimit="0"
       text-rendering="optimizeLegibility"
       id="g276"
       style="font-size:11px;stroke-linejoin:round;stroke-miterlimit:0;font-family:Arial">
      <path
         clip-path="url(#clipPath3)"
         d="m 306.469,135.234 1.047,0.266 q -0.328,1.281 -1.18,1.961 -0.852,0.68 -2.086,0.68 -1.281,0 -2.078,-0.524 -0.797,-0.523 -1.211,-1.508 -0.414,-0.984 -0.414,-2.109 0,-1.219 0.469,-2.141 0.468,-0.921 1.336,-1.398 0.867,-0.477 1.914,-0.477 1.187,0 1.992,0.602 0.804,0.602 1.117,1.695 l -1.031,0.25 q -0.266,-0.859 -0.789,-1.25 -0.524,-0.39 -1.305,-0.39 -0.922,0 -1.531,0.429 -0.61,0.43 -0.852,1.164 -0.242,0.735 -0.242,1.516 0,1 0.289,1.75 0.289,0.75 0.906,1.125 0.618,0.375 1.336,0.375 0.875,0 1.485,-0.508 0.609,-0.508 0.828,-1.508 z m 2.319,2.766 0,-7.875 2.718,0 q 0.922,0 1.407,0.109 0.671,0.157 1.156,0.563 0.609,0.531 0.922,1.351 0.312,0.821 0.312,1.868 0,0.906 -0.211,1.593 -0.211,0.688 -0.539,1.141 -0.328,0.453 -0.719,0.719 -0.39,0.265 -0.937,0.398 Q 312.35,138 311.631,138 l -2.843,0 z m 1.046,-0.922 1.688,0 q 0.766,0 1.211,-0.148 0.445,-0.149 0.711,-0.414 0.375,-0.375 0.578,-1 0.203,-0.625 0.203,-1.516 0,-1.234 -0.406,-1.898 -0.406,-0.664 -0.985,-0.883 -0.421,-0.157 -1.343,-0.157 l -1.657,0 0,6.016 z m 6.866,0.922 0,-7.875 1.031,0 0,3.906 3.922,-3.906 1.407,0 -3.297,3.187 3.437,4.688 -1.375,0 -2.797,-3.984 -1.297,1.25 0,2.734 -1.031,0 z m 7.368,0 0,-7.875 1.063,0 4.14,6.187 0,-6.187 1,0 0,7.875 -1.078,0 -4.125,-6.188 0,6.188 -1,0 z m 12.632,-0.922 0,0.922 -5.203,0 q 0,-0.344 0.125,-0.672 0.187,-0.531 0.625,-1.047 0.437,-0.515 1.265,-1.187 1.281,-1.063 1.735,-1.672 0.453,-0.61 0.453,-1.156 0,-0.578 -0.407,-0.977 -0.406,-0.398 -1.078,-0.398 -0.687,0 -1.109,0.421 -0.422,0.422 -0.422,1.157 l -1,-0.094 q 0.109,-1.109 0.774,-1.695 0.664,-0.586 1.789,-0.586 1.125,0 1.789,0.625 0.664,0.625 0.664,1.562 0,0.469 -0.196,0.93 -0.195,0.461 -0.64,0.961 -0.446,0.5 -1.492,1.39 -0.875,0.719 -1.118,0.985 -0.242,0.265 -0.414,0.531 l 3.86,0 z m 0.571,0.922 3.031,-7.875 1.109,0 3.235,7.875 -1.188,0 -0.922,-2.391 -3.297,0 -0.859,2.391 -1.109,0 z m 2.265,-3.234 2.672,0 -0.812,-2.188 q -0.375,-0.984 -0.563,-1.625 -0.156,0.75 -0.422,1.5 l -0.875,2.313 z"
         id="path278"
         inkscape:connector-curvature="0"
         style="stroke:none" />
    </g>
    <g
       font-size="15"
       stroke-miterlimit="0"
       text-rendering="optimizeLegibility"
       id="g280"
       style="font-size:15px;fill:#fff6f6;stroke:#fff6f6;stroke-linejoin:round;stroke-miterlimit:0;font-family:Ubuntu">
      <rect
         clip-path="url(#clipPath5)"
         height="20"
         rx="5"
         ry="5"
         width="49"
         x="151"
         y="18"
         id="rect282"
         style="stroke:none" />
      <rect
         clip-path="url(#clipPath6)"
         height="20"
         rx="5"
         ry="5"
         width="49"
         x="151"
         y="18"
         id="rect284"
         style="fill:none;stroke:#0e7082" />
    </g>
    <g
       font-size="11"
       stroke-miterlimit="0"
       text-rendering="optimizeLegibility"
       id="g286"
       style="font-size:11px;stroke-linejoin:round;stroke-miterlimit:0;font-family:Arial">
      <path
         clip-path="url(#clipPath5)"
         d="m 153.844,32 0,-7.875 2.968,0 q 0.797,0 1.204,0.078 0.578,0.094 0.968,0.367 0.391,0.274 0.633,0.758 0.242,0.484 0.242,1.078 0,1 -0.64,1.696 -0.641,0.695 -2.313,0.695 l -2.015,0 0,3.203 -1.047,0 z m 1.047,-4.125 2.031,0 q 1.016,0 1.437,-0.375 0.422,-0.375 0.422,-1.062 0,-0.5 -0.25,-0.852 -0.25,-0.352 -0.656,-0.461 -0.266,-0.063 -0.969,-0.063 l -2.015,0 0,2.813 z m 6.477,4.125 0,-7.875 1.031,0 0,7.875 -1.031,0 z m 2.838,0 0,-7.875 1.031,0 0,3.906 3.922,-3.906 1.406,0 -3.297,3.187 3.438,4.688 -1.375,0 -2.797,-3.984 -1.297,1.25 0,2.734 -1.031,0 z m 6.993,-2.078 0.953,-0.125 q 0.172,0.812 0.57,1.18 0.399,0.367 0.977,0.367 0.687,0 1.156,-0.477 0.469,-0.476 0.469,-1.164 0,-0.672 -0.438,-1.101 -0.437,-0.43 -1.109,-0.43 -0.266,0 -0.672,0.094 l 0.094,-0.844 q 0.109,0.016 0.156,0.016 0.625,0 1.117,-0.321 0.492,-0.32 0.492,-0.992 0,-0.531 -0.359,-0.883 -0.359,-0.351 -0.922,-0.351 -0.562,0 -0.937,0.351 -0.375,0.352 -0.485,1.07 l -0.969,-0.171 q 0.172,-0.985 0.805,-1.516 0.633,-0.531 1.555,-0.531 0.656,0 1.195,0.273 0.539,0.274 0.828,0.758 0.289,0.484 0.289,1.016 0,0.515 -0.273,0.929 -0.274,0.414 -0.82,0.664 0.703,0.157 1.093,0.664 0.391,0.508 0.391,1.274 0,1.031 -0.758,1.75 -0.758,0.719 -1.898,0.719 -1.047,0 -1.727,-0.618 -0.68,-0.617 -0.773,-1.601 z m 12.117,-0.688 1.047,0.266 q -0.328,1.281 -1.179,1.961 -0.852,0.68 -2.086,0.68 -1.282,0 -2.078,-0.524 -0.797,-0.523 -1.211,-1.508 -0.414,-0.984 -0.414,-2.109 0,-1.219 0.468,-2.141 0.469,-0.921 1.336,-1.398 0.867,-0.477 1.914,-0.477 1.188,0 1.992,0.602 0.805,0.602 1.118,1.695 l -1.032,0.25 q -0.265,-0.859 -0.789,-1.25 -0.523,-0.39 -1.304,-0.39 -0.922,0 -1.532,0.429 -0.609,0.43 -0.851,1.164 -0.242,0.735 -0.242,1.516 0,1 0.289,1.75 0.289,0.75 0.906,1.125 0.617,0.375 1.336,0.375 0.875,0 1.484,-0.508 0.61,-0.508 0.828,-1.508 z m 7.007,1.844 0,0.922 -5.203,0 q 0,-0.344 0.125,-0.672 0.187,-0.531 0.625,-1.047 0.437,-0.515 1.265,-1.187 1.282,-1.063 1.735,-1.672 0.453,-0.61 0.453,-1.156 0,-0.578 -0.406,-0.977 -0.407,-0.398 -1.079,-0.398 -0.687,0 -1.109,0.421 -0.422,0.422 -0.422,1.157 l -1,-0.094 q 0.11,-1.109 0.774,-1.695 0.664,-0.586 1.789,-0.586 1.125,0 1.789,0.625 0.664,0.625 0.664,1.562 0,0.469 -0.196,0.93 -0.195,0.461 -0.64,0.961 -0.445,0.5 -1.492,1.39 -0.875,0.719 -1.118,0.985 -0.242,0.265 -0.414,0.531 l 3.86,0 z m 5.117,-2.172 0,-0.922 3.344,0 0,2.922 q -0.781,0.61 -1.594,0.922 -0.812,0.313 -1.671,0.313 -1.157,0 -2.11,-0.5 -0.953,-0.5 -1.437,-1.438 -0.485,-0.937 -0.485,-2.109 0,-1.141 0.485,-2.141 0.484,-1 1.39,-1.484 0.907,-0.485 2.078,-0.485 0.844,0 1.539,0.282 0.696,0.281 1.086,0.773 0.391,0.492 0.594,1.289 l -0.937,0.25 q -0.172,-0.594 -0.438,-0.937 -0.265,-0.344 -0.758,-0.547 -0.492,-0.203 -1.086,-0.203 -0.718,0 -1.234,0.211 -0.516,0.21 -0.836,0.57 -0.32,0.359 -0.508,0.781 -0.297,0.735 -0.297,1.578 0,1.063 0.368,1.766 0.367,0.703 1.054,1.047 0.688,0.344 1.469,0.344 0.672,0 1.32,-0.258 0.649,-0.258 0.977,-0.555 l 0,-1.469 -2.313,0 z"
         id="path288"
         inkscape:connector-curvature="0"
         style="stroke:none" />
    </g>
    <g
       font-size="15"
       stroke-miterlimit="0"
       text-rendering="optimizeLegibility"
       id="g290"
       style="font-size:15px;fill:#ffb7b7;stroke:#ffb7b7;stroke-linejoin:round;stroke-miterlimit:0;font-family:Ubuntu">
      <rect
         clip-path="url(#clipPath7)"
         height="20"
         rx="5"
         ry="5"
         width="40"
         x="201"
         y="148"
         id="rect292"
         style="stroke:none" />
      <rect
         clip-path="url(#clipPath8)"
         height="20"
         rx="5"
         ry="5"
         width="40"
         x="201"
         y="148"
         id="rect294"
         style="fill:none;stroke:#0e7082" />
    </g>
    <g
       font-size="11"
       stroke-miterlimit="0"
       text-rendering="optimizeLegibility"
       id="g296"
       style="font-size:11px;stroke-linejoin:round;stroke-miterlimit:0;font-family:Arial">
      <path
         clip-path="url(#clipPath7)"
         d="m 210.859,162 0,-6.938 -2.593,0 0,-0.937 6.234,0 0,0.937 -2.609,0 0,6.938 -1.032,0 z m 4.704,0 0,-7.875 2.969,0 q 0.797,0 1.203,0.078 0.578,0.094 0.969,0.367 0.39,0.274 0.632,0.758 0.243,0.484 0.243,1.078 0,1 -0.641,1.696 -0.641,0.695 -2.313,0.695 l -2.015,0 0,3.203 -1.047,0 z m 1.047,-4.125 2.031,0 q 1.016,0 1.438,-0.375 0.421,-0.375 0.421,-1.062 0,-0.5 -0.25,-0.852 -0.25,-0.352 -0.656,-0.461 -0.265,-0.063 -0.969,-0.063 l -2.015,0 0,2.813 z m 5.899,2.063 1.016,-0.094 q 0.109,0.75 0.523,1.125 0.414,0.375 0.993,0.375 0.703,0 1.187,-0.532 0.484,-0.531 0.484,-1.39 0,-0.828 -0.468,-1.305 -0.469,-0.476 -1.219,-0.476 -0.469,0 -0.844,0.211 -0.375,0.21 -0.594,0.539 l -0.906,-0.11 0.766,-4.047 3.922,0 0,0.922 -3.141,0 -0.437,2.11 q 0.718,-0.485 1.5,-0.485 1.031,0 1.734,0.711 0.703,0.711 0.703,1.836 0,1.078 -0.625,1.844 -0.75,0.969 -2.062,0.969 -1.079,0 -1.758,-0.602 -0.68,-0.601 -0.774,-1.601 z m 6.134,-0.016 0.953,-0.125 q 0.172,0.812 0.57,1.18 0.398,0.367 0.977,0.367 0.687,0 1.156,-0.477 0.469,-0.476 0.469,-1.164 0,-0.672 -0.438,-1.101 -0.437,-0.43 -1.109,-0.43 -0.266,0 -0.672,0.094 l 0.094,-0.844 q 0.109,0.016 0.156,0.016 0.625,0 1.117,-0.321 0.492,-0.32 0.492,-0.992 0,-0.531 -0.359,-0.883 -0.36,-0.351 -0.922,-0.351 -0.563,0 -0.938,0.351 -0.375,0.352 -0.484,1.07 l -0.969,-0.171 q 0.172,-0.985 0.805,-1.516 0.633,-0.531 1.555,-0.531 0.656,0 1.195,0.273 0.539,0.274 0.828,0.758 0.289,0.484 0.289,1.016 0,0.515 -0.273,0.929 -0.274,0.414 -0.821,0.664 0.704,0.157 1.094,0.664 0.391,0.508 0.391,1.274 0,1.031 -0.758,1.75 -0.758,0.719 -1.898,0.719 -1.047,0 -1.727,-0.618 -0.68,-0.617 -0.773,-1.601 z"
         id="path298"
         inkscape:connector-curvature="0"
         style="stroke:none" />
    </g>
    <g
       font-size="15"
       stroke-miterlimit="0"
       text-rendering="optimizeLegibility"
       id="g300"
       style="font-size:15px;fill:#fff3f3;stroke:#fff3f3;stroke-linejoin:round;stroke-miterlimit:0;font-family:Ubuntu">
      <rect
         clip-path="url(#clipPath9)"
         height="20"
         rx="5"
         ry="5"
         width="40"
         x="272"
         y="196"
         id="rect302"
         style="stroke:none" />
      <rect
         clip-path="url(#clipPath10)"
         height="20"
         rx="5"
         ry="5"
         width="40"
         x="272"
         y="196"
         id="rect304"
         style="fill:none;stroke:#0e7082" />
    </g>
    <g
       font-size="11"
       stroke-miterlimit="0"
       text-rendering="optimizeLegibility"
       id="g306"
       style="font-size:11px;stroke-linejoin:round;stroke-miterlimit:0;font-family:Arial">
      <path
         clip-path="url(#clipPath9)"
         d="m 276.812,210 0,-7.875 1.579,0 1.859,5.578 q 0.25,0.781 0.375,1.156 0.141,-0.421 0.422,-1.25 l 1.875,-5.484 1.406,0 0,7.875 -1,0 0,-6.594 -2.297,6.594 -0.937,0 -2.266,-6.703 0,6.703 -1.016,0 z m 9.195,0 0,-7.875 2.719,0 q 0.921,0 1.406,0.109 0.672,0.157 1.156,0.563 0.609,0.531 0.922,1.351 0.312,0.821 0.312,1.868 0,0.906 -0.21,1.593 -0.211,0.688 -0.54,1.141 -0.328,0.453 -0.718,0.719 -0.391,0.265 -0.938,0.398 -0.547,0.133 -1.265,0.133 l -2.844,0 z m 1.047,-0.922 1.687,0 q 0.766,0 1.211,-0.148 0.445,-0.149 0.711,-0.414 0.375,-0.375 0.578,-1 0.203,-0.625 0.203,-1.516 0,-1.234 -0.406,-1.898 -0.406,-0.664 -0.984,-0.883 -0.422,-0.157 -1.344,-0.157 l -1.656,0 0,6.016 z m 6.865,0.922 0,-7.875 1.579,0 1.859,5.578 q 0.25,0.781 0.375,1.156 0.141,-0.421 0.422,-1.25 l 1.875,-5.484 1.406,0 0,7.875 -1,0 0,-6.594 -2.297,6.594 -0.937,0 -2.266,-6.703 0,6.703 -1.016,0 z m 13.882,-0.922 0,0.922 -5.203,0 q 0,-0.344 0.125,-0.672 0.188,-0.531 0.625,-1.047 0.438,-0.515 1.266,-1.187 1.281,-1.063 1.734,-1.672 0.453,-0.61 0.453,-1.156 0,-0.578 -0.406,-0.977 -0.406,-0.398 -1.078,-0.398 -0.688,0 -1.109,0.421 -0.422,0.422 -0.422,1.157 l -1,-0.094 q 0.109,-1.109 0.773,-1.695 0.664,-0.586 1.789,-0.586 1.125,0 1.789,0.625 0.664,0.625 0.664,1.562 0,0.469 -0.195,0.93 -0.195,0.461 -0.641,0.961 -0.445,0.5 -1.492,1.39 -0.875,0.719 -1.117,0.985 -0.242,0.265 -0.414,0.531 l 3.859,0 z"
         id="path308"
         inkscape:connector-curvature="0"
         style="stroke:none" />
    </g>
    <g
       font-size="15"
       stroke-miterlimit="0"
       text-rendering="optimizeLegibility"
       id="g310"
       style="font-size:15px;fill:#ffffff;stroke:#ffffff;stroke-linejoin:round;stroke-miterlimit:0;font-family:Ubuntu">
      <rect
         clip-path="url(#clipPath11)"
         height="20"
         rx="5"
         ry="5"
         width="42"
         x="346"
         y="76"
         id="rect312"
         style="stroke:none" />
      <rect
         clip-path="url(#clipPath12)"
         height="20"
         rx="5"
         ry="5"
         width="42"
         x="346"
         y="76"
         id="rect314"
         style="fill:none" />
    </g>
    <g
       font-size="11"
       stroke-miterlimit="0"
       text-rendering="optimizeLegibility"
       id="g316"
       style="font-size:11px;stroke-linejoin:round;stroke-miterlimit:0;font-family:Arial">
      <path
         clip-path="url(#clipPath11)"
         d="m 354.469,87.234 1.047,0.266 q -0.328,1.281 -1.18,1.961 -0.852,0.68 -2.086,0.68 -1.281,0 -2.078,-0.524 -0.797,-0.523 -1.211,-1.508 -0.414,-0.984 -0.414,-2.109 0,-1.219 0.469,-2.141 0.468,-0.921 1.336,-1.398 0.867,-0.477 1.914,-0.477 1.187,0 1.992,0.602 0.804,0.602 1.117,1.695 l -1.031,0.25 q -0.266,-0.859 -0.789,-1.25 -0.524,-0.39 -1.305,-0.39 -0.922,0 -1.531,0.429 -0.61,0.43 -0.852,1.164 -0.242,0.735 -0.242,1.516 0,1 0.289,1.75 0.289,0.75 0.906,1.125 0.618,0.375 1.336,0.375 0.875,0 1.485,-0.508 0.609,-0.508 0.828,-1.508 z m 7.944,0 1.046,0.266 q -0.328,1.281 -1.179,1.961 -0.852,0.68 -2.086,0.68 -1.281,0 -2.078,-0.524 -0.797,-0.523 -1.211,-1.508 -0.414,-0.984 -0.414,-2.109 0,-1.219 0.468,-2.141 0.469,-0.921 1.336,-1.398 0.868,-0.477 1.914,-0.477 1.188,0 1.993,0.602 0.804,0.602 1.117,1.695 l -1.031,0.25 q -0.266,-0.859 -0.789,-1.25 -0.524,-0.39 -1.305,-0.39 -0.922,0 -1.531,0.429 -0.61,0.43 -0.852,1.164 -0.242,0.735 -0.242,1.516 0,1 0.289,1.75 0.289,0.75 0.906,1.125 0.617,0.375 1.336,0.375 0.875,0 1.484,-0.508 0.61,-0.508 0.829,-1.508 z m 2.318,2.766 0,-7.875 1.063,0 4.141,6.187 0,-6.187 1,0 0,7.875 -1.079,0 -4.125,-6.188 0,6.188 -1,0 z m 7.944,0 0,-7.875 2.719,0 q 0.922,0 1.406,0.109 0.672,0.157 1.157,0.563 0.609,0.531 0.921,1.351 0.313,0.821 0.313,1.868 0,0.906 -0.211,1.593 -0.211,0.688 -0.539,1.141 -0.328,0.453 -0.719,0.719 -0.39,0.265 -0.937,0.398 Q 376.238,90 375.519,90 l -2.844,0 z m 1.047,-0.922 1.688,0 q 0.765,0 1.211,-0.148 0.445,-0.149 0.711,-0.414 0.375,-0.375 0.578,-1 0.203,-0.625 0.203,-1.516 0,-1.234 -0.406,-1.898 -0.407,-0.664 -0.985,-0.883 -0.422,-0.157 -1.344,-0.157 l -1.656,0 0,6.016 z m 10.147,0.922 -0.969,0 0,-6.156 q -0.343,0.328 -0.906,0.664 -0.562,0.336 -1.015,0.492 l 0,-0.938 q 0.812,-0.374 1.414,-0.914 0.601,-0.539 0.851,-1.054 l 0.625,0 0,7.906 z"
         id="path318"
         inkscape:connector-curvature="0"
         style="stroke:none" />
    </g>
    <g
       font-size="15"
       stroke-miterlimit="0"
       text-rendering="optimizeLegibility"
       id="g320"
       style="font-size:15px;fill:#ffeaea;stroke:#ffeaea;stroke-linejoin:round;stroke-miterlimit:0;font-family:Ubuntu">
      <rect
         clip-path="url(#clipPath13)"
         height="20"
         rx="5"
         ry="5"
         width="40"
         x="352"
         y="174"
         id="rect322"
         style="stroke:none" />
      <rect
         clip-path="url(#clipPath14)"
         height="20"
         rx="5"
         ry="5"
         width="40"
         x="352"
         y="174"
         id="rect324"
         style="fill:none;stroke:#0e7082" />
    </g>
    <g
       font-size="11"
       stroke-miterlimit="0"
       text-rendering="optimizeLegibility"
       id="g326"
       style="font-size:11px;stroke-linejoin:round;stroke-miterlimit:0;font-family:Arial">
      <path
         clip-path="url(#clipPath13)"
         d="m 361.859,188 0,-7.875 3.5,0 q 1.047,0 1.594,0.211 0.547,0.211 0.875,0.75 0.328,0.539 0.328,1.195 0,0.828 -0.539,1.407 -0.539,0.578 -1.679,0.734 0.421,0.187 0.624,0.39 0.469,0.422 0.876,1.047 l 1.359,2.141 -1.297,0 -1.047,-1.641 q -0.453,-0.703 -0.75,-1.078 -0.297,-0.375 -0.531,-0.531 -0.234,-0.156 -0.469,-0.203 -0.187,-0.047 -0.594,-0.047 l -1.203,0 0,3.5 -1.047,0 z m 1.047,-4.406 2.235,0 q 0.718,0 1.125,-0.141 0.406,-0.141 0.609,-0.469 0.203,-0.328 0.203,-0.703 0,-0.562 -0.398,-0.922 Q 366.281,181 365.406,181 l -2.5,0 0,2.594 z m 6.85,4.406 0,-7.875 2.953,0 q 0.891,0 1.438,0.242 0.547,0.242 0.859,0.735 0.313,0.492 0.313,1.039 0,0.5 -0.274,0.945 -0.273,0.445 -0.836,0.726 0.719,0.204 1.102,0.711 0.383,0.508 0.383,1.196 0,0.547 -0.235,1.023 -0.234,0.477 -0.578,0.735 -0.343,0.257 -0.859,0.39 -0.516,0.133 -1.266,0.133 l -3,0 z m 1.032,-4.562 1.703,0 q 0.703,0 1,-0.094 0.39,-0.125 0.593,-0.399 0.204,-0.273 0.204,-0.679 0,-0.391 -0.188,-0.688 -0.187,-0.297 -0.539,-0.406 -0.352,-0.11 -1.195,-0.11 l -1.578,0 0,2.376 z m 0,3.64 1.968,0 q 0.5,0 0.703,-0.047 0.36,-0.062 0.602,-0.211 0.242,-0.148 0.398,-0.437 0.157,-0.289 0.157,-0.664 0,-0.438 -0.227,-0.766 -0.226,-0.328 -0.625,-0.461 -0.398,-0.133 -1.148,-0.133 l -1.828,0 0,2.719 z m 9.587,0.922 -0.969,0 0,-6.156 q -0.344,0.328 -0.906,0.664 -0.563,0.336 -1.016,0.492 l 0,-0.938 q 0.812,-0.374 1.414,-0.914 0.602,-0.539 0.852,-1.054 l 0.625,0 0,7.906 z"
         id="path328"
         inkscape:connector-curvature="0"
         style="stroke:none" />
    </g>
    <g
       font-size="15"
       stroke-miterlimit="0"
       text-rendering="optimizeLegibility"
       id="g330"
       style="font-size:15px;fill:#ffeaea;stroke:#ffeaea;stroke-linejoin:round;stroke-miterlimit:0;font-family:Ubuntu">
      <rect
         clip-path="url(#clipPath15)"
         height="20"
         rx="5"
         ry="5"
         width="40"
         x="300"
         y="10"
         id="rect332"
         style="stroke:none" />
      <rect
         clip-path="url(#clipPath16)"
         height="20"
         rx="5"
         ry="5"
         width="40"
         x="300"
         y="10"
         id="rect334"
         style="fill:none;stroke:#0e7082" />
    </g>
    <g
       font-size="11"
       stroke-miterlimit="0"
       text-rendering="optimizeLegibility"
       id="g336"
       style="font-size:11px;stroke-linejoin:round;stroke-miterlimit:0;font-family:Arial">
      <path
         clip-path="url(#clipPath15)"
         d="m 301.984,24 3.032,-7.875 1.109,0 3.234,7.875 -1.187,0 -0.922,-2.391 -3.297,0 -0.859,2.391 -1.11,0 z m 2.266,-3.234 2.672,0 -0.813,-2.188 q -0.375,-0.984 -0.562,-1.625 -0.156,0.75 -0.422,1.5 l -0.875,2.313 z m 9.618,0.14 0,-0.922 3.344,0 0,2.922 q -0.781,0.61 -1.594,0.922 -0.812,0.313 -1.672,0.313 -1.156,0 -2.109,-0.5 -0.953,-0.5 -1.438,-1.438 -0.484,-0.937 -0.484,-2.109 0,-1.141 0.484,-2.141 0.485,-1 1.391,-1.484 0.906,-0.485 2.078,-0.485 0.844,0 1.539,0.282 0.696,0.281 1.086,0.773 0.391,0.492 0.594,1.289 l -0.938,0.25 q -0.171,-0.594 -0.437,-0.937 -0.266,-0.344 -0.758,-0.547 -0.492,-0.203 -1.086,-0.203 -0.719,0 -1.234,0.211 -0.516,0.21 -0.836,0.57 -0.32,0.359 -0.508,0.781 -0.297,0.735 -0.297,1.578 0,1.063 0.367,1.766 0.368,0.703 1.055,1.047 0.688,0.344 1.469,0.344 0.672,0 1.32,-0.258 0.649,-0.258 0.977,-0.555 l 0,-1.469 -2.313,0 z m 4.009,3.094 3.032,-7.875 1.109,0 3.234,7.875 -1.187,0 -0.922,-2.391 -3.297,0 -0.859,2.391 -1.11,0 z m 2.266,-3.234 2.672,0 -0.813,-2.188 q -0.375,-0.984 -0.562,-1.625 -0.156,0.75 -0.422,1.5 l -0.875,2.313 z m 5.931,3.234 0,-7.875 2.968,0 q 0.797,0 1.204,0.078 0.578,0.094 0.968,0.367 0.391,0.274 0.633,0.758 0.242,0.484 0.242,1.078 0,1 -0.64,1.696 -0.641,0.695 -2.313,0.695 l -2.015,0 0,3.203 -1.047,0 z m 1.047,-4.125 2.031,0 q 1.015,0 1.437,-0.375 0.422,-0.375 0.422,-1.062 0,-0.5 -0.25,-0.852 -0.25,-0.352 -0.656,-0.461 -0.266,-0.063 -0.969,-0.063 l -2.015,0 0,2.813 z m 10.977,3.203 0,0.922 -5.203,0 q 0,-0.344 0.125,-0.672 0.188,-0.531 0.625,-1.047 0.438,-0.515 1.266,-1.187 1.281,-1.063 1.734,-1.672 0.453,-0.61 0.453,-1.156 0,-0.578 -0.406,-0.977 -0.406,-0.398 -1.078,-0.398 -0.688,0 -1.11,0.421 -0.421,0.422 -0.421,1.157 l -1,-0.094 q 0.109,-1.109 0.773,-1.695 0.664,-0.586 1.789,-0.586 1.125,0 1.789,0.625 0.664,0.625 0.664,1.562 0,0.469 -0.195,0.93 -0.195,0.461 -0.641,0.961 -0.445,0.5 -1.492,1.39 -0.875,0.719 -1.117,0.985 -0.242,0.265 -0.414,0.531 l 3.859,0 z"
         id="path338"
         inkscape:connector-curvature="0"
         style="stroke:none" />
    </g>
    <g
       font-size="15"
       stroke-miterlimit="0"
       text-rendering="optimizeLegibility"
       id="g340"
       style="font-size:15px;fill:#ffeaea;stroke:#ffeaea;stroke-linejoin:round;stroke-miterlimit:0;font-family:Ubuntu">
      <rect
         clip-path="url(#clipPath17)"
         height="20"
         rx="5"
         ry="5"
         width="40"
         x="417"
         y="136"
         id="rect342"
         style="stroke:none" />
      <rect
         clip-path="url(#clipPath18)"
         height="20"
         rx="5"
         ry="5"
         width="40"
         x="417"
         y="136"
         id="rect344"
         style="fill:none;stroke:#0e7082" />
    </g>
    <g
       font-size="11"
       stroke-miterlimit="0"
       text-rendering="optimizeLegibility"
       id="g346"
       style="font-size:11px;stroke-linejoin:round;stroke-miterlimit:0;font-family:Arial">
      <path
         clip-path="url(#clipPath17)"
         d="m 428.469,147.234 1.047,0.266 q -0.328,1.281 -1.18,1.961 -0.852,0.68 -2.086,0.68 -1.281,0 -2.078,-0.524 -0.797,-0.523 -1.211,-1.508 -0.414,-0.984 -0.414,-2.109 0,-1.219 0.469,-2.141 0.468,-0.921 1.336,-1.398 0.867,-0.477 1.914,-0.477 1.187,0 1.992,0.602 0.804,0.602 1.117,1.695 l -1.031,0.25 q -0.266,-0.859 -0.789,-1.25 -0.524,-0.39 -1.305,-0.39 -0.922,0 -1.531,0.429 -0.61,0.43 -0.852,1.164 -0.242,0.735 -0.242,1.516 0,1 0.289,1.75 0.289,0.75 0.906,1.125 0.618,0.375 1.336,0.375 0.875,0 1.485,-0.508 0.609,-0.508 0.828,-1.508 z m 2.319,2.766 0,-7.875 2.718,0 q 0.922,0 1.407,0.109 0.671,0.157 1.156,0.563 0.609,0.531 0.922,1.351 0.312,0.821 0.312,1.868 0,0.906 -0.211,1.593 -0.211,0.688 -0.539,1.141 -0.328,0.453 -0.719,0.719 -0.39,0.265 -0.937,0.398 Q 434.35,150 433.631,150 l -2.843,0 z m 1.046,-0.922 1.688,0 q 0.766,0 1.211,-0.148 0.445,-0.149 0.711,-0.414 0.375,-0.375 0.578,-1 0.203,-0.625 0.203,-1.516 0,-1.234 -0.406,-1.898 -0.406,-0.664 -0.985,-0.883 -0.421,-0.157 -1.343,-0.157 l -1.657,0 0,6.016 z m 6.866,0.922 0,-7.875 1.031,0 0,3.906 3.922,-3.906 1.407,0 -3.297,3.187 3.437,4.688 -1.375,0 -2.797,-3.984 -1.297,1.25 0,2.734 -1.031,0 z m 10.087,0 0,-1.891 -3.422,0 0,-0.875 3.594,-5.109 0.781,0 0,5.109 1.078,0 0,0.875 -1.078,0 0,1.891 -0.953,0 z m 0,-2.766 0,-3.562 -2.469,3.562 2.469,0 z"
         id="path348"
         inkscape:connector-curvature="0"
         style="stroke:none" />
    </g>
    <g
       font-size="15"
       stroke-miterlimit="0"
       text-rendering="optimizeLegibility"
       id="g350"
       style="font-size:15px;fill:#ff9494;stroke:#ff9494;stroke-linejoin:round;stroke-miterlimit:0;font-family:Ubuntu">
      <rect
         clip-path="url(#clipPath19)"
         height="20"
         rx="5"
         ry="5"
         width="40"
         x="60"
         y="67"
         id="rect352"
         style="stroke:none" />
      <rect
         clip-path="url(#clipPath20)"
         height="20"
         rx="5"
         ry="5"
         width="40"
         x="60"
         y="67"
         id="rect354"
         style="fill:none;stroke:#0e7082" />
    </g>
    <g
       font-size="11"
       stroke-miterlimit="0"
       text-rendering="optimizeLegibility"
       id="g356"
       style="font-size:11px;stroke-linejoin:round;stroke-miterlimit:0;font-family:Arial">
      <path
         clip-path="url(#clipPath19)"
         d="m 65.875,81 0,-7.875 5.687,0 0,0.937 -4.656,0 0,2.407 4.36,0 0,0.922 -4.36,0 0,2.687 4.844,0 0,0.922 -5.875,0 z m 10.993,-3.094 0,-0.922 3.344,0 0,2.922 q -0.781,0.61 -1.594,0.922 -0.812,0.313 -1.672,0.313 -1.156,0 -2.109,-0.5 -0.953,-0.5 -1.438,-1.438 -0.484,-0.937 -0.484,-2.109 0,-1.141 0.484,-2.141 0.485,-1 1.391,-1.484 0.906,-0.485 2.078,-0.485 0.844,0 1.539,0.282 0.696,0.281 1.086,0.773 0.391,0.492 0.594,1.289 l -0.938,0.25 q -0.171,-0.594 -0.437,-0.937 -0.266,-0.344 -0.758,-0.547 -0.492,-0.203 -1.086,-0.203 -0.719,0 -1.234,0.211 -0.516,0.21 -0.836,0.57 -0.32,0.359 -0.508,0.781 -0.297,0.735 -0.297,1.578 0,1.063 0.367,1.766 0.368,0.703 1.055,1.047 0.688,0.344 1.469,0.344 0.672,0 1.32,-0.258 0.649,-0.258 0.977,-0.555 l 0,-1.469 -2.313,0 z m 4.931,3.094 0,-7.875 5.313,0 0,0.937 -4.281,0 0,2.438 3.703,0 0,0.922 -3.703,0 0,3.578 -1.032,0 z m 6.673,0 0,-7.875 3.5,0 q 1.047,0 1.593,0.211 0.547,0.211 0.875,0.75 0.329,0.539 0.329,1.195 0,0.828 -0.54,1.407 -0.539,0.578 -1.679,0.734 0.422,0.187 0.625,0.39 0.469,0.422 0.875,1.047 L 95.409,81 94.112,81 93.065,79.359 Q 92.612,78.656 92.315,78.281 92.019,77.906 91.784,77.75 91.55,77.594 91.315,77.547 91.128,77.5 90.722,77.5 l -1.203,0 0,3.5 -1.047,0 z m 1.047,-4.406 2.234,0 q 0.719,0 1.125,-0.141 0.406,-0.141 0.609,-0.469 0.203,-0.328 0.203,-0.703 0,-0.562 -0.398,-0.922 Q 92.894,74 92.019,74 l -2.5,0 0,2.594 z"
         id="path358"
         inkscape:connector-curvature="0"
         style="stroke:none" />
    </g>
    <g
       font-size="15"
       stroke-miterlimit="0"
       text-rendering="optimizeLegibility"
       id="g360"
       style="font-size:15px;fill:#fffefe;stroke:#fffefe;stroke-linejoin:round;stroke-miterlimit:0;font-family:Ubuntu">
      <rect
         clip-path="url(#clipPath21)"
         height="20"
         rx="5"
         ry="5"
         width="40"
         x="76"
         y="139"
         id="rect362"
         style="stroke:none" />
      <rect
         clip-path="url(#clipPath22)"
         height="20"
         rx="5"
         ry="5"
         width="40"
         x="76"
         y="139"
         id="rect364"
         style="fill:none;stroke:#ffffff" />
    </g>
    <g
       font-size="11"
       stroke-miterlimit="0"
       text-rendering="optimizeLegibility"
       id="g366"
       style="font-size:11px;stroke-linejoin:round;stroke-miterlimit:0;font-family:Arial">
      <path
         clip-path="url(#clipPath21)"
         d="m 81.812,153 0,-7.875 1.032,0 0,3.906 3.922,-3.906 1.406,0 -3.297,3.187 3.437,4.688 -1.374,0 -2.797,-3.984 -1.297,1.25 0,2.734 -1.032,0 z m 7.384,0 0,-7.875 3.5,0 q 1.047,0 1.594,0.211 0.547,0.211 0.875,0.75 0.328,0.539 0.328,1.195 0,0.828 -0.539,1.407 -0.539,0.578 -1.68,0.734 0.422,0.187 0.625,0.39 0.469,0.422 0.875,1.047 l 1.36,2.141 -1.297,0 -1.047,-1.641 q -0.453,-0.703 -0.75,-1.078 -0.297,-0.375 -0.531,-0.531 -0.235,-0.156 -0.469,-0.203 -0.187,-0.047 -0.594,-0.047 l -1.203,0 0,3.5 -1.047,0 z m 1.047,-4.406 2.235,0 q 0.718,0 1.125,-0.141 0.406,-0.141 0.609,-0.469 0.203,-0.328 0.203,-0.703 0,-0.562 -0.398,-0.922 Q 93.618,146 92.743,146 l -2.5,0 0,2.594 z m 6.022,4.406 3.031,-7.875 1.11,0 3.234,7.875 -1.187,0 -0.922,-2.391 -3.297,0 -0.859,2.391 -1.11,0 z m 2.266,-3.234 2.672,0 -0.813,-2.188 q -0.375,-0.984 -0.562,-1.625 -0.157,0.75 -0.422,1.5 l -0.875,2.313 z m 5.587,0.703 0.984,-0.078 q 0.063,0.578 0.32,0.961 0.258,0.382 0.789,0.617 0.532,0.234 1.204,0.234 0.609,0 1.062,-0.18 0.453,-0.179 0.68,-0.484 0.226,-0.305 0.226,-0.68 0,-0.375 -0.218,-0.648 -0.219,-0.273 -0.719,-0.461 -0.313,-0.125 -1.399,-0.383 -1.086,-0.258 -1.523,-0.492 -0.563,-0.297 -0.836,-0.734 -0.273,-0.438 -0.273,-0.985 0,-0.594 0.335,-1.109 0.336,-0.516 0.985,-0.789 0.648,-0.274 1.445,-0.274 0.875,0 1.547,0.289 0.672,0.289 1.031,0.836 0.36,0.547 0.391,1.235 l -1,0.078 q -0.078,-0.75 -0.547,-1.133 -0.469,-0.383 -1.375,-0.383 -0.937,0 -1.375,0.352 -0.437,0.351 -0.437,0.836 0,0.422 0.312,0.703 0.297,0.265 1.57,0.555 1.274,0.289 1.743,0.507 0.687,0.313 1.015,0.797 0.328,0.485 0.328,1.125 0,0.625 -0.359,1.18 -0.359,0.555 -1.039,0.867 -0.68,0.313 -1.524,0.313 -1.062,0 -1.781,-0.313 -0.719,-0.312 -1.133,-0.937 -0.414,-0.625 -0.429,-1.422 z"
         id="path368"
         inkscape:connector-curvature="0"
         style="stroke:none" />
    </g>
    <g
       font-size="15"
       stroke-miterlimit="0"
       text-rendering="optimizeLegibility"
       id="g370"
       style="font-size:15px;fill:#ffe7e7;stroke:#ffe7e7;stroke-linejoin:round;stroke-miterlimit:0;font-family:Ubuntu">
      <rect
         clip-path="url(#clipPath23)"
         height="20"
         rx="5"
         ry="5"
         width="40"
         x="63"
         y="212"
         id="rect372"
         style="stroke:none" />
      <rect
         clip-path="url(#clipPath24)"
         height="20"
         rx="5"
         ry="5"
         width="40"
         x="63"
         y="212"
         id="rect374"
         style="fill:none;stroke:#0e7082" />
    </g>
    <g
       font-size="11"
       stroke-miterlimit="0"
       text-rendering="optimizeLegibility"
       id="g376"
       style="font-size:11px;stroke-linejoin:round;stroke-miterlimit:0;font-family:Arial">
      <path
         clip-path="url(#clipPath23)"
         d="m 72.844,226 0,-7.875 1.062,0 4.141,6.187 0,-6.187 1,0 0,7.875 -1.078,0 -4.125,-6.188 0,6.188 -1,0 z m 8.006,0 0,-7.875 5.313,0 0,0.937 -4.282,0 0,2.438 3.703,0 0,0.922 -3.703,0 0,3.578 -1.031,0 z m 9.907,0 -0.969,0 0,-6.156 q -0.344,0.328 -0.906,0.664 -0.563,0.336 -1.016,0.492 l 0,-0.938 q 0.813,-0.374 1.414,-0.914 0.602,-0.539 0.852,-1.054 l 0.625,0 0,7.906 z"
         id="path378"
         inkscape:connector-curvature="0"
         style="stroke:none" />
    </g>
    <g
       font-size="15"
       stroke-miterlimit="0"
       text-rendering="optimizeLegibility"
       id="g380"
       style="font-size:15px;fill:#ffffff;stroke:#ffffff;stroke-linejoin:round;stroke-miterlimit:0;font-family:Ubuntu">
      <rect
         clip-path="url(#clipPath25)"
         height="20"
         rx="5"
         ry="5"
         width="40"
         x="383"
         y="245"
         id="rect382"
         style="stroke:none" />
      <rect
         clip-path="url(#clipPath26)"
         height="20"
         rx="5"
         ry="5"
         width="40"
         x="383"
         y="245"
         id="rect384"
         style="fill:none" />
    </g>
    <g
       font-size="11"
       stroke-miterlimit="0"
       text-rendering="optimizeLegibility"
       id="g386"
       style="font-size:11px;stroke-linejoin:round;stroke-miterlimit:0;font-family:Arial">
      <path
         clip-path="url(#clipPath25)"
         d="m 387.875,259 0,-7.875 1.047,0 0,3.234 4.094,0 0,-3.234 1.046,0 0,7.875 -1.046,0 0,-3.719 -4.094,0 0,3.719 -1.047,0 z m 8.1,0 0,-7.875 1.031,0 0,7.875 -1.031,0 z m 2.931,0 0,-7.875 5.313,0 0,0.937 -4.281,0 0,2.438 3.703,0 0,0.922 -3.703,0 0,3.578 -1.032,0 z m 9.907,0 -0.969,0 0,-6.156 q -0.344,0.328 -0.906,0.664 -0.563,0.336 -1.016,0.492 l 0,-0.938 q 0.813,-0.374 1.414,-0.914 0.602,-0.539 0.852,-1.054 l 0.625,0 0,7.906 z m 2.008,0 3.032,-7.875 1.109,0 3.234,7.875 -1.187,0 -0.922,-2.391 -3.297,0 -0.859,2.391 -1.11,0 z m 2.266,-3.234 2.672,0 -0.813,-2.188 q -0.375,-0.984 -0.562,-1.625 -0.156,0.75 -0.422,1.5 l -0.875,2.313 z"
         id="path388"
         inkscape:connector-curvature="0"
         style="stroke:none" />
    </g>
    <g
       font-size="15"
       stroke-miterlimit="0"
       text-rendering="optimizeLegibility"
       id="g390"
       style="font-size:15px;fill:#ffebeb;stroke:#ffebeb;stroke-linejoin:round;stroke-miterlimit:0;font-family:Ubuntu">
      <rect
         clip-path="url(#clipPath27)"
         height="20"
         rx="5"
         ry="5"
         width="40"
         x="387"
         y="318"
         id="rect392"
         style="stroke:none" />
      <rect
         clip-path="url(#clipPath28)"
         height="20"
         rx="5"
         ry="5"
         width="40"
         x="387"
         y="318"
         id="rect394"
         style="fill:none;stroke:#0e7082" />
    </g>
    <g
       font-size="11"
       stroke-miterlimit="0"
       text-rendering="optimizeLegibility"
       id="g396"
       style="font-size:11px;stroke-linejoin:round;stroke-miterlimit:0;font-family:Arial">
      <path
         clip-path="url(#clipPath27)"
         d="m 396.531,328.172 q 0,-1.969 1.055,-3.078 1.055,-1.11 2.711,-1.11 1.094,0 1.969,0.524 0.875,0.523 1.336,1.453 0.46,0.93 0.46,2.117 0,1.188 -0.484,2.133 -0.484,0.945 -1.367,1.437 -0.883,0.493 -1.914,0.493 -1.109,0 -1.985,-0.539 -0.874,-0.54 -1.328,-1.469 -0.453,-0.93 -0.453,-1.961 z m 1.078,0.016 q 0,1.421 0.766,2.242 0.766,0.82 1.922,0.82 1.172,0 1.93,-0.828 0.757,-0.828 0.757,-2.36 0,-0.953 -0.32,-1.671 -0.32,-0.719 -0.945,-1.11 -0.625,-0.39 -1.407,-0.39 -1.109,0 -1.906,0.757 -0.797,0.758 -0.797,2.54 z m 7.447,1.281 0.985,-0.078 q 0.062,0.578 0.32,0.961 0.258,0.382 0.789,0.617 0.531,0.234 1.203,0.234 0.609,0 1.063,-0.18 0.453,-0.179 0.679,-0.484 0.227,-0.305 0.227,-0.68 0,-0.375 -0.219,-0.648 -0.219,-0.273 -0.719,-0.461 -0.312,-0.125 -1.398,-0.383 -1.086,-0.258 -1.524,-0.492 -0.562,-0.297 -0.836,-0.734 -0.273,-0.438 -0.273,-0.985 0,-0.594 0.336,-1.109 0.336,-0.516 0.984,-0.789 0.649,-0.274 1.446,-0.274 0.875,0 1.547,0.289 0.671,0.289 1.031,0.836 0.359,0.547 0.39,1.235 l -1,0.078 q -0.078,-0.75 -0.546,-1.133 -0.469,-0.383 -1.375,-0.383 -0.938,0 -1.375,0.352 -0.438,0.351 -0.438,0.836 0,0.422 0.313,0.703 0.296,0.265 1.57,0.555 1.273,0.289 1.742,0.507 0.688,0.313 1.016,0.797 0.328,0.485 0.328,1.125 0,0.625 -0.36,1.18 -0.359,0.555 -1.039,0.867 -0.679,0.313 -1.523,0.313 -1.063,0 -1.781,-0.313 -0.719,-0.312 -1.133,-0.937 -0.414,-0.625 -0.43,-1.422 z m 7.446,0.703 0.922,-0.078 q 0.125,0.656 0.453,0.953 0.329,0.297 0.86,0.297 0.437,0 0.773,-0.203 0.336,-0.203 0.555,-0.547 0.219,-0.344 0.359,-0.922 0.141,-0.578 0.141,-1.188 0,-0.062 0,-0.187 -0.297,0.453 -0.797,0.742 -0.5,0.289 -1.094,0.289 -0.968,0 -1.648,-0.711 -0.68,-0.711 -0.68,-1.867 0,-1.203 0.711,-1.93 0.711,-0.726 1.774,-0.726 0.765,0 1.398,0.414 0.633,0.414 0.969,1.18 0.336,0.765 0.336,2.218 0,1.5 -0.328,2.399 -0.329,0.898 -0.977,1.367 -0.648,0.469 -1.523,0.469 -0.922,0 -1.508,-0.516 -0.586,-0.516 -0.696,-1.453 z m 3.954,-3.469 q 0,-0.828 -0.446,-1.32 -0.445,-0.492 -1.07,-0.492 -0.641,0 -1.117,0.531 -0.477,0.531 -0.477,1.359 0,0.75 0.453,1.219 0.453,0.469 1.125,0.469 0.672,0 1.102,-0.469 0.43,-0.469 0.43,-1.297 z"
         id="path398"
         inkscape:connector-curvature="0"
         style="stroke:none" />
    </g>
    <g
       font-size="15"
       stroke-miterlimit="0"
       text-rendering="optimizeLegibility"
       id="g400"
       style="font-size:15px;fill:#ffffff;stroke:#ffffff;stroke-linejoin:round;stroke-miterlimit:0;font-family:Ubuntu">
      <rect
         clip-path="url(#clipPath29)"
         height="20"
         rx="5"
         ry="5"
         width="40"
         x="413"
         y="87"
         id="rect402"
         style="stroke:none" />
      <rect
         clip-path="url(#clipPath30)"
         height="20"
         rx="5"
         ry="5"
         width="40"
         x="413"
         y="87"
         id="rect404"
         style="fill:none" />
    </g>
    <g
       font-size="11"
       stroke-miterlimit="0"
       text-rendering="optimizeLegibility"
       id="g406"
       style="font-size:11px;stroke-linejoin:round;stroke-miterlimit:0;font-family:Arial">
      <path
         clip-path="url(#clipPath29)"
         d="m 420.812,101 0,-7.875 1.032,0 0,3.906 3.922,-3.906 1.406,0 -3.297,3.187 3.437,4.688 -1.374,0 -2.797,-3.984 -1.297,1.25 0,2.734 -1.032,0 z m 7.337,0 0,-7.875 1.032,0 0,6.953 3.875,0 0,0.922 -4.907,0 z m 6.118,0 0,-7.875 1.031,0 0,3.906 3.922,-3.906 1.406,0 -3.296,3.187 3.437,4.688 -1.375,0 -2.797,-3.984 -1.297,1.25 0,2.734 -1.031,0 z m 6.993,-2.078 0.953,-0.125 q 0.172,0.812 0.571,1.18 0.398,0.367 0.976,0.367 0.688,0 1.157,-0.477 0.468,-0.476 0.468,-1.164 0,-0.672 -0.437,-1.101 -0.438,-0.43 -1.11,-0.43 -0.265,0 -0.671,0.094 l 0.093,-0.844 q 0.11,0.016 0.157,0.016 0.625,0 1.117,-0.321 0.492,-0.32 0.492,-0.992 0,-0.531 -0.359,-0.883 -0.36,-0.351 -0.922,-0.351 -0.563,0 -0.938,0.351 -0.375,0.352 -0.484,1.07 l -0.969,-0.171 q 0.172,-0.985 0.805,-1.516 0.633,-0.531 1.554,-0.531 0.657,0 1.196,0.273 0.539,0.274 0.828,0.758 0.289,0.484 0.289,1.016 0,0.515 -0.274,0.929 -0.273,0.414 -0.82,0.664 0.703,0.157 1.094,0.664 0.391,0.508 0.391,1.274 0,1.031 -0.758,1.75 -0.758,0.719 -1.899,0.719 -1.047,0 -1.726,-0.618 -0.68,-0.617 -0.774,-1.601 z"
         id="path408"
         inkscape:connector-curvature="0"
         style="stroke:none" />
    </g>
    <g
       font-size="15"
       stroke-miterlimit="0"
       text-rendering="optimizeLegibility"
       id="g410"
       style="font-size:15px;fill:#ffefef;stroke:#ffefef;stroke-linejoin:round;stroke-miterlimit:0;font-family:Ubuntu">
      <rect
         clip-path="url(#clipPath31)"
         height="20"
         rx="5"
         ry="5"
         width="47"
         x="509"
         y="106"
         id="rect412"
         style="stroke:none" />
      <rect
         clip-path="url(#clipPath32)"
         height="20"
         rx="5"
         ry="5"
         width="47"
         x="509"
         y="106"
         id="rect414"
         style="fill:none;stroke:#0e7082" />
    </g>
    <g
       font-size="11"
       stroke-miterlimit="0"
       text-rendering="optimizeLegibility"
       id="g416"
       style="font-size:11px;stroke-linejoin:round;stroke-miterlimit:0;font-family:Arial">
      <path
         clip-path="url(#clipPath31)"
         d="m 517.469,117.234 1.047,0.266 q -0.328,1.281 -1.18,1.961 -0.852,0.68 -2.086,0.68 -1.281,0 -2.078,-0.524 -0.797,-0.523 -1.211,-1.508 -0.414,-0.984 -0.414,-2.109 0,-1.219 0.469,-2.141 0.468,-0.921 1.336,-1.398 0.867,-0.477 1.914,-0.477 1.187,0 1.992,0.602 0.804,0.602 1.117,1.695 l -1.031,0.25 q -0.266,-0.859 -0.789,-1.25 -0.524,-0.39 -1.305,-0.39 -0.922,0 -1.531,0.429 -0.61,0.43 -0.852,1.164 -0.242,0.735 -0.242,1.516 0,1 0.289,1.75 0.289,0.75 0.906,1.125 0.618,0.375 1.336,0.375 0.875,0 1.485,-0.508 0.609,-0.508 0.828,-1.508 z m 4.334,2.766 0,-6.938 -2.594,0 0,-0.937 6.235,0 0,0.937 -2.61,0 0,6.938 -1.031,0 z m 4.704,0 0,-7.875 2.719,0 q 0.921,0 1.406,0.109 0.672,0.157 1.156,0.563 0.609,0.531 0.922,1.351 0.312,0.821 0.312,1.868 0,0.906 -0.21,1.593 -0.211,0.688 -0.54,1.141 -0.328,0.453 -0.718,0.719 -0.391,0.265 -0.938,0.398 -0.547,0.133 -1.265,0.133 l -2.844,0 z m 1.047,-0.922 1.687,0 q 0.766,0 1.211,-0.148 0.445,-0.149 0.711,-0.414 0.375,-0.375 0.578,-1 0.203,-0.625 0.203,-1.516 0,-1.234 -0.406,-1.898 -0.406,-0.664 -0.984,-0.883 -0.422,-0.157 -1.344,-0.157 l -1.656,0 0,6.016 z m 6.553,-1.609 0.984,-0.078 q 0.063,0.578 0.321,0.961 0.257,0.382 0.789,0.617 0.531,0.234 1.203,0.234 0.609,0 1.062,-0.18 0.453,-0.179 0.68,-0.484 0.227,-0.305 0.227,-0.68 0,-0.375 -0.219,-0.648 -0.219,-0.273 -0.719,-0.461 -0.312,-0.125 -1.398,-0.383 -1.086,-0.258 -1.524,-0.492 -0.562,-0.297 -0.836,-0.734 -0.273,-0.438 -0.273,-0.985 0,-0.594 0.336,-1.109 0.336,-0.516 0.984,-0.789 0.649,-0.274 1.445,-0.274 0.875,0 1.547,0.289 0.672,0.289 1.032,0.836 0.359,0.547 0.39,1.235 l -1,0.078 q -0.078,-0.75 -0.547,-1.133 -0.468,-0.383 -1.375,-0.383 -0.937,0 -1.375,0.352 -0.437,0.351 -0.437,0.836 0,0.422 0.312,0.703 0.297,0.265 1.571,0.555 1.273,0.289 1.742,0.507 0.687,0.313 1.015,0.797 0.329,0.485 0.329,1.125 0,0.625 -0.36,1.18 -0.359,0.555 -1.039,0.867 -0.68,0.313 -1.523,0.313 -1.063,0 -1.782,-0.313 -0.718,-0.312 -1.132,-0.937 -0.414,-0.625 -0.43,-1.422 z m 7.681,2.531 0,-7.875 2.968,0 q 0.797,0 1.203,0.078 0.579,0.094 0.969,0.367 0.391,0.274 0.633,0.758 0.242,0.484 0.242,1.078 0,1 -0.64,1.696 -0.641,0.695 -2.313,0.695 l -2.016,0 0,3.203 -1.046,0 z m 1.046,-4.125 2.032,0 q 1.015,0 1.437,-0.375 0.422,-0.375 0.422,-1.062 0,-0.5 -0.25,-0.852 -0.25,-0.352 -0.656,-0.461 -0.266,-0.063 -0.969,-0.063 l -2.016,0 0,2.813 z m 10.978,3.203 0,0.922 -5.203,0 q 0,-0.344 0.125,-0.672 0.187,-0.531 0.625,-1.047 0.437,-0.515 1.266,-1.187 1.281,-1.063 1.734,-1.672 0.453,-0.61 0.453,-1.156 0,-0.578 -0.406,-0.977 -0.406,-0.398 -1.078,-0.398 -0.688,0 -1.11,0.421 -0.422,0.422 -0.422,1.157 l -1,-0.094 q 0.11,-1.109 0.774,-1.695 0.664,-0.586 1.789,-0.586 1.125,0 1.789,0.625 0.664,0.625 0.664,1.562 0,0.469 -0.195,0.93 -0.196,0.461 -0.641,0.961 -0.445,0.5 -1.492,1.39 -0.875,0.719 -1.117,0.985 -0.242,0.265 -0.414,0.531 l 3.859,0 z"
         id="path418"
         inkscape:connector-curvature="0"
         style="stroke:none" />
    </g>
    <g
       font-size="15"
       stroke-miterlimit="0"
       text-rendering="optimizeLegibility"
       id="g420"
       style="font-size:15px;fill:#ffa8a8;stroke:#ffa8a8;stroke-linejoin:round;stroke-miterlimit:0;font-family:Ubuntu">
      <rect
         clip-path="url(#clipPath33)"
         height="20"
         rx="5"
         ry="5"
         width="48"
         x="392"
         y="10"
         id="rect422"
         style="stroke:none" />
      <rect
         clip-path="url(#clipPath34)"
         height="20"
         rx="5"
         ry="5"
         width="48"
         x="392"
         y="10"
         id="rect424"
         style="fill:none;stroke:#0e7082" />
    </g>
    <g
       font-size="11"
       stroke-miterlimit="0"
       text-rendering="optimizeLegibility"
       id="g426"
       style="font-size:11px;stroke-linejoin:round;stroke-miterlimit:0;font-family:Arial">
      <path
         clip-path="url(#clipPath33)"
         d="m 400.469,21.234 1.047,0.266 q -0.328,1.281 -1.18,1.961 -0.852,0.68 -2.086,0.68 -1.281,0 -2.078,-0.524 -0.797,-0.523 -1.211,-1.508 -0.414,-0.984 -0.414,-2.109 0,-1.219 0.469,-2.141 0.468,-0.921 1.336,-1.398 0.867,-0.477 1.914,-0.477 1.187,0 1.992,0.602 0.804,0.602 1.117,1.695 l -1.031,0.25 q -0.266,-0.859 -0.789,-1.25 -0.524,-0.39 -1.305,-0.39 -0.922,0 -1.531,0.429 -0.61,0.43 -0.852,1.164 -0.242,0.735 -0.242,1.516 0,1 0.289,1.75 0.289,0.75 0.906,1.125 0.618,0.375 1.336,0.375 0.875,0 1.485,-0.508 0.609,-0.508 0.828,-1.508 z m 2.319,2.766 0,-7.875 2.718,0 q 0.922,0 1.407,0.109 0.671,0.157 1.156,0.563 0.609,0.531 0.922,1.351 0.312,0.821 0.312,1.868 0,0.906 -0.211,1.593 -0.211,0.688 -0.539,1.141 -0.328,0.453 -0.719,0.719 -0.39,0.265 -0.937,0.398 Q 406.35,24 405.631,24 l -2.843,0 z m 1.046,-0.922 1.688,0 q 0.766,0 1.211,-0.148 0.445,-0.149 0.711,-0.414 0.375,-0.375 0.578,-1 0.203,-0.625 0.203,-1.516 0,-1.234 -0.406,-1.898 -0.406,-0.664 -0.985,-0.883 -0.421,-0.157 -1.343,-0.157 l -1.657,0 0,6.016 z M 410.7,24 l 0,-7.875 1.031,0 0,3.906 3.922,-3.906 1.407,0 -3.297,3.187 3.437,4.688 -1.375,0 -2.797,-3.984 -1.297,1.25 0,2.734 -1.031,0 z m 7.368,0 0,-7.875 1.063,0 4.14,6.187 0,-6.187 1,0 0,7.875 -1.078,0 -4.125,-6.188 0,6.188 -1,0 z m 12.632,-0.922 0,0.922 -5.203,0 q 0,-0.344 0.125,-0.672 0.187,-0.531 0.625,-1.047 0.437,-0.515 1.265,-1.187 1.281,-1.063 1.735,-1.672 0.453,-0.61 0.453,-1.156 0,-0.578 -0.407,-0.977 -0.406,-0.398 -1.078,-0.398 -0.687,0 -1.109,0.421 -0.422,0.422 -0.422,1.157 l -1,-0.094 q 0.109,-1.109 0.774,-1.695 0.664,-0.586 1.789,-0.586 1.125,0 1.789,0.625 0.664,0.625 0.664,1.562 0,0.469 -0.196,0.93 -0.195,0.461 -0.64,0.961 -0.446,0.5 -1.492,1.39 -0.875,0.719 -1.118,0.985 -0.242,0.265 -0.414,0.531 l 3.86,0 z m 1.399,0.922 0,-7.875 2.953,0 q 0.89,0 1.437,0.242 0.547,0.242 0.86,0.735 0.312,0.492 0.312,1.039 0,0.5 -0.273,0.945 -0.274,0.445 -0.836,0.726 0.719,0.204 1.101,0.711 0.383,0.508 0.383,1.196 0,0.547 -0.234,1.023 -0.235,0.477 -0.578,0.735 -0.344,0.257 -0.86,0.39 Q 435.849,24 435.099,24 l -3,0 z m 1.031,-4.562 1.703,0 q 0.703,0 1,-0.094 0.391,-0.125 0.594,-0.399 0.203,-0.273 0.203,-0.679 0,-0.391 -0.188,-0.688 -0.187,-0.297 -0.539,-0.406 -0.351,-0.11 -1.195,-0.11 l -1.578,0 0,2.376 z m 0,3.64 1.969,0 q 0.5,0 0.703,-0.047 0.359,-0.062 0.601,-0.211 0.243,-0.148 0.399,-0.437 0.156,-0.289 0.156,-0.664 0,-0.438 -0.227,-0.766 -0.226,-0.328 -0.625,-0.461 -0.398,-0.133 -1.148,-0.133 l -1.828,0 0,2.719 z"
         id="path428"
         inkscape:connector-curvature="0"
         style="stroke:none" />
    </g>
    <g
       font-size="15"
       stroke-miterlimit="0"
       text-rendering="optimizeLegibility"
       id="g430"
       style="font-size:15px;fill:#ffefef;stroke:#ffefef;stroke-linejoin:round;stroke-miterlimit:0;font-family:Ubuntu">
      <rect
         clip-path="url(#clipPath35)"
         height="20"
         rx="5"
         ry="5"
         width="40"
         x="142"
         y="288"
         id="rect432"
         style="stroke:none" />
      <rect
         clip-path="url(#clipPath36)"
         height="20"
         rx="5"
         ry="5"
         width="40"
         x="142"
         y="288"
         id="rect434"
         style="fill:none;stroke:#0e7082" />
    </g>
    <g
       font-size="11"
       stroke-miterlimit="0"
       text-rendering="optimizeLegibility"
       id="g436"
       style="font-size:11px;stroke-linejoin:round;stroke-miterlimit:0;font-family:Arial">
      <path
         clip-path="url(#clipPath35)"
         d="m 147.859,302 0,-7.875 3.5,0 q 1.047,0 1.594,0.211 0.547,0.211 0.875,0.75 0.328,0.539 0.328,1.195 0,0.828 -0.539,1.407 -0.539,0.578 -1.679,0.734 0.421,0.187 0.624,0.39 0.469,0.422 0.876,1.047 l 1.359,2.141 -1.297,0 -1.047,-1.641 q -0.453,-0.703 -0.75,-1.078 -0.297,-0.375 -0.531,-0.531 -0.234,-0.156 -0.469,-0.203 -0.187,-0.047 -0.594,-0.047 l -1.203,0 0,3.5 -1.047,0 z m 1.047,-4.406 2.235,0 q 0.718,0 1.125,-0.141 0.406,-0.141 0.609,-0.469 0.203,-0.328 0.203,-0.703 0,-0.562 -0.398,-0.922 Q 152.281,295 151.406,295 l -2.5,0 0,2.594 z m 9.1,4.406 0,-3.328 -3.031,-4.547 1.266,0 1.562,2.375 q 0.422,0.672 0.797,1.328 0.344,-0.609 0.859,-1.39 l 1.516,-2.313 1.219,0 -3.141,4.547 0,3.328 -1.047,0 z m 5.134,0 0,-7.875 3.5,0 q 1.047,0 1.594,0.211 0.547,0.211 0.875,0.75 0.328,0.539 0.328,1.195 0,0.828 -0.539,1.407 -0.539,0.578 -1.68,0.734 0.422,0.187 0.625,0.39 0.469,0.422 0.875,1.047 l 1.36,2.141 -1.297,0 -1.047,-1.641 q -0.453,-0.703 -0.75,-1.078 -0.297,-0.375 -0.531,-0.531 -0.235,-0.156 -0.469,-0.203 -0.188,-0.047 -0.594,-0.047 l -1.203,0 0,3.5 -1.047,0 z m 1.047,-4.406 2.234,0 q 0.719,0 1.125,-0.141 0.407,-0.141 0.61,-0.469 0.203,-0.328 0.203,-0.703 0,-0.562 -0.399,-0.922 Q 167.562,295 166.687,295 l -2.5,0 0,2.594 z m 6.506,2.328 0.953,-0.125 q 0.172,0.812 0.571,1.18 0.398,0.367 0.976,0.367 0.688,0 1.157,-0.477 0.468,-0.476 0.468,-1.164 0,-0.672 -0.437,-1.101 -0.438,-0.43 -1.11,-0.43 -0.265,0 -0.671,0.094 l 0.093,-0.844 q 0.11,0.016 0.157,0.016 0.625,0 1.117,-0.321 0.492,-0.32 0.492,-0.992 0,-0.531 -0.359,-0.883 -0.36,-0.351 -0.922,-0.351 -0.563,0 -0.938,0.351 -0.375,0.352 -0.484,1.07 l -0.969,-0.171 q 0.172,-0.985 0.805,-1.516 0.633,-0.531 1.554,-0.531 0.657,0 1.196,0.273 0.539,0.274 0.828,0.758 0.289,0.484 0.289,1.016 0,0.515 -0.273,0.929 -0.274,0.414 -0.821,0.664 0.703,0.157 1.094,0.664 0.391,0.508 0.391,1.274 0,1.031 -0.758,1.75 -0.758,0.719 -1.899,0.719 -1.047,0 -1.726,-0.618 -0.68,-0.617 -0.774,-1.601 z"
         id="path438"
         inkscape:connector-curvature="0"
         style="stroke:none" />
    </g>
    <g
       font-size="15"
       stroke-miterlimit="0"
       text-rendering="optimizeLegibility"
       id="g440"
       style="font-size:15px;fill:#fff4f4;stroke:#fff4f4;stroke-linejoin:round;stroke-miterlimit:0;font-family:Ubuntu">
      <rect
         clip-path="url(#clipPath37)"
         height="20"
         rx="5"
         ry="5"
         width="40"
         x="156"
         y="214"
         id="rect442"
         style="stroke:none" />
      <rect
         clip-path="url(#clipPath38)"
         height="20"
         rx="5"
         ry="5"
         width="40"
         x="156"
         y="214"
         id="rect444"
         style="fill:none;stroke:#ffffff" />
    </g>
    <g
       font-size="11"
       stroke-miterlimit="0"
       text-rendering="optimizeLegibility"
       id="g446"
       style="font-size:11px;stroke-linejoin:round;stroke-miterlimit:0;font-family:Arial">
      <path
         clip-path="url(#clipPath37)"
         d="m 163.844,228 0,-7.875 2.718,0 q 0.922,0 1.407,0.109 0.672,0.157 1.156,0.563 0.609,0.531 0.922,1.351 0.312,0.821 0.312,1.868 0,0.906 -0.211,1.593 -0.21,0.688 -0.539,1.141 -0.328,0.453 -0.718,0.719 -0.391,0.265 -0.938,0.398 -0.547,0.133 -1.265,0.133 l -2.844,0 z m 1.047,-0.922 1.687,0 q 0.766,0 1.211,-0.148 0.445,-0.149 0.711,-0.414 0.375,-0.375 0.578,-1 0.203,-0.625 0.203,-1.516 0,-1.234 -0.406,-1.898 -0.406,-0.664 -0.984,-0.883 -0.422,-0.157 -1.344,-0.157 l -1.656,0 0,6.016 z m 6.865,0.922 0,-7.875 1.578,0 1.86,5.578 q 0.25,0.781 0.375,1.156 0.14,-0.421 0.422,-1.25 l 1.875,-5.484 1.406,0 0,7.875 -1,0 0,-6.594 -2.297,6.594 -0.937,0 -2.266,-6.703 0,6.703 -1.016,0 z m 9.195,0 0,-7.875 2.718,0 q 0.922,0 1.407,0.109 0.672,0.157 1.156,0.563 0.609,0.531 0.922,1.351 0.312,0.821 0.312,1.868 0,0.906 -0.211,1.593 -0.211,0.688 -0.539,1.141 -0.328,0.453 -0.718,0.719 -0.391,0.265 -0.938,0.398 -0.547,0.133 -1.266,0.133 l -2.843,0 z m 1.047,-0.922 1.687,0 q 0.766,0 1.211,-0.148 0.445,-0.149 0.711,-0.414 0.375,-0.375 0.578,-1 0.203,-0.625 0.203,-1.516 0,-1.234 -0.406,-1.898 -0.406,-0.664 -0.984,-0.883 -0.422,-0.157 -1.344,-0.157 l -1.656,0 0,6.016 z"
         id="path448"
         inkscape:connector-curvature="0"
         style="stroke:none" />
    </g>
    <g
       font-size="15"
       stroke-miterlimit="0"
       text-rendering="optimizeLegibility"
       id="g450"
       style="font-size:15px;fill:#329632;stroke:#329632;stroke-linejoin:round;stroke-miterlimit:0;stroke-dasharray:5, 5;font-family:Ubuntu">
      <line
         clip-path="url(#clipPath39)"
         x1="252"
         x2="302"
         y1="97"
         y2="123"
         id="line452"
         style="fill:none" />
      <polygon
         clip-path="url(#clipPath40)"
         points="302,123 294,122 297,117 "
         id="polygon454"
         style="stroke:none" />
      <polygon
         clip-path="url(#clipPath40)"
         points="302,123 294,122 297,117 "
         id="polygon456"
         style="fill:none;stroke-dasharray:none" />
      <line
         clip-path="url(#clipPath41)"
         x1="185"
         x2="222"
         y1="38"
         y2="76"
         id="line458"
         style="fill:none;stroke:#326496;stroke-dasharray:none" />
      <polygon
         clip-path="url(#clipPath42)"
         points="222,76 215,73 219,69 "
         id="polygon460"
         style="fill:#326496;stroke:none" />
      <polygon
         clip-path="url(#clipPath42)"
         points="222,76 215,73 219,69 "
         id="polygon462"
         style="fill:none;stroke:#326496;stroke-dasharray:none" />
      <line
         clip-path="url(#clipPath43)"
         x1="222"
         x2="231"
         y1="147"
         y2="97"
         id="line464"
         style="fill:none" />
      <polygon
         clip-path="url(#clipPath44)"
         points="231,97 233,104 227,103 "
         id="polygon466"
         style="stroke:none" />
      <polygon
         clip-path="url(#clipPath44)"
         points="231,97 233,104 227,103 "
         id="polygon468"
         style="fill:none;stroke-dasharray:none" />
      <line
         clip-path="url(#clipPath45)"
         x1="297"
         x2="241"
         y1="139"
         y2="153"
         id="line470"
         style="fill:none;stroke:#326496;stroke-dasharray:none" />
      <polygon
         clip-path="url(#clipPath46)"
         points="241,153 247,148 249,154 "
         id="polygon472"
         style="fill:#326496;stroke:none" />
      <polygon
         clip-path="url(#clipPath46)"
         points="241,153 247,148 249,154 "
         id="polygon474"
         style="fill:none;stroke:#326496;stroke-dasharray:none" />
      <line
         clip-path="url(#clipPath47)"
         x1="317"
         x2="296"
         y1="144"
         y2="195"
         id="line476"
         style="fill:none;stroke:#326496;stroke-dasharray:none" />
      <polygon
         clip-path="url(#clipPath48)"
         points="296,195 296,187 301,190 "
         id="polygon478"
         style="fill:#326496;stroke:none" />
      <polygon
         clip-path="url(#clipPath48)"
         points="296,195 296,187 301,190 "
         id="polygon480"
         style="fill:none;stroke:#326496;stroke-dasharray:none" />
      <line
         clip-path="url(#clipPath49)"
         x1="332"
         x2="357"
         y1="123"
         y2="96"
         id="line482"
         style="fill:none;stroke:#326496;stroke-dasharray:none" />
      <polygon
         clip-path="url(#clipPath50)"
         points="357,96 354,103 350,99 "
         id="polygon484"
         style="fill:#326496;stroke:none" />
      <polygon
         clip-path="url(#clipPath50)"
         points="357,96 354,103 350,99 "
         id="polygon486"
         style="fill:none;stroke:#326496;stroke-dasharray:none" />
      <line
         clip-path="url(#clipPath51)"
         x1="334"
         x2="349"
         y1="144"
         y2="156"
         id="line488"
         style="fill:none;stroke:#326496;stroke-dasharray:none" />
      <line
         clip-path="url(#clipPath51)"
         x1="349"
         x2="363"
         y1="156"
         y2="173"
         id="line490"
         style="fill:none;stroke:#326496;stroke-dasharray:none" />
      <polygon
         clip-path="url(#clipPath52)"
         points="363,173 356,170 361,166 "
         id="polygon492"
         style="fill:#326496;stroke:none" />
      <polygon
         clip-path="url(#clipPath52)"
         points="363,173 356,170 361,166 "
         id="polygon494"
         style="fill:none;stroke:#326496;stroke-dasharray:none" />
      <line
         clip-path="url(#clipPath53)"
         x1="346"
         x2="416"
         y1="136"
         y2="143"
         id="line496"
         style="fill:none;stroke:#326496;stroke-dasharray:none" />
      <polygon
         clip-path="url(#clipPath54)"
         points="416,143 409,145 409,139 "
         id="polygon498"
         style="fill:#326496;stroke:none" />
      <polygon
         clip-path="url(#clipPath54)"
         points="416,143 409,145 409,139 "
         id="polygon500"
         style="fill:none;stroke:#326496;stroke-dasharray:none" />
      <line
         clip-path="url(#clipPath55)"
         x1="346"
         x2="412"
         y1="125"
         y2="103"
         id="line502"
         style="fill:none" />
      <polygon
         clip-path="url(#clipPath56)"
         points="412,103 406,108 404,102 "
         id="polygon504"
         style="stroke:none" />
      <polygon
         clip-path="url(#clipPath56)"
         points="412,103 406,108 404,102 "
         id="polygon506"
         style="fill:none;stroke-dasharray:none" />
      <line
         clip-path="url(#clipPath57)"
         x1="358"
         x2="344"
         y1="173"
         y2="162"
         id="line508"
         style="fill:none" />
      <line
         clip-path="url(#clipPath57)"
         x1="344"
         x2="330"
         y1="162"
         y2="144"
         id="line510"
         style="fill:none" />
      <polygon
         clip-path="url(#clipPath58)"
         points="330,144 337,148 332,151 "
         id="polygon512"
         style="stroke:none" />
      <polygon
         clip-path="url(#clipPath58)"
         points="330,144 337,148 332,151 "
         id="polygon514"
         style="fill:none;stroke-dasharray:none" />
      <line
         clip-path="url(#clipPath59)"
         x1="240"
         x2="259"
         y1="168"
         y2="178"
         id="line516"
         style="fill:none" />
      <line
         clip-path="url(#clipPath59)"
         x1="259"
         x2="279"
         y1="178"
         y2="195"
         id="line518"
         style="fill:none" />
      <polygon
         clip-path="url(#clipPath60)"
         points="279,195 272,193 276,188 "
         id="polygon520"
         style="stroke:none" />
      <polygon
         clip-path="url(#clipPath60)"
         points="279,195 272,193 276,188 "
         id="polygon522"
         style="fill:none;stroke-dasharray:none" />
      <line
         clip-path="url(#clipPath61)"
         x1="213"
         x2="183"
         y1="168"
         y2="213"
         id="line524"
         style="fill:none" />
      <polygon
         clip-path="url(#clipPath62)"
         points="183,213 184,206 189,209 "
         id="polygon526"
         style="stroke:none" />
      <polygon
         clip-path="url(#clipPath62)"
         points="183,213 184,206 189,209 "
         id="polygon528"
         style="fill:none;stroke-dasharray:none" />
      <line
         clip-path="url(#clipPath63)"
         x1="271"
         x2="253"
         y1="195"
         y2="186"
         id="line530"
         style="fill:none;stroke:#326496;stroke-dasharray:none" />
      <line
         clip-path="url(#clipPath63)"
         x1="253"
         x2="232"
         y1="186"
         y2="168"
         id="line532"
         style="fill:none;stroke:#326496;stroke-dasharray:none" />
      <polygon
         clip-path="url(#clipPath64)"
         points="232,168 239,170 235,175 "
         id="polygon534"
         style="fill:#326496;stroke:none" />
      <polygon
         clip-path="url(#clipPath64)"
         points="232,168 239,170 235,175 "
         id="polygon536"
         style="fill:none;stroke:#326496;stroke-dasharray:none" />
      <line
         clip-path="url(#clipPath65)"
         x1="367"
         x2="371"
         y1="96"
         y2="173"
         id="line538"
         style="fill:none;stroke:#326496;stroke-dasharray:none" />
      <polygon
         clip-path="url(#clipPath66)"
         points="371,173 368,166 374,166 "
         id="polygon540"
         style="fill:#326496;stroke:none" />
      <polygon
         clip-path="url(#clipPath66)"
         points="371,173 368,166 374,166 "
         id="polygon542"
         style="fill:none;stroke:#326496;stroke-dasharray:none" />
      <line
         clip-path="url(#clipPath67)"
         x1="327"
         x2="359"
         y1="30"
         y2="75"
         id="line544"
         style="fill:none" />
      <polygon
         clip-path="url(#clipPath68)"
         points="359,75 352,71 357,68 "
         id="polygon546"
         style="stroke:none" />
      <polygon
         clip-path="url(#clipPath68)"
         points="359,75 352,71 357,68 "
         id="polygon548"
         style="fill:none;stroke-dasharray:none" />
      <line
         clip-path="url(#clipPath69)"
         x1="408"
         x2="374"
         y1="30"
         y2="75"
         id="line550"
         style="fill:none;stroke:#326496;stroke-dasharray:none" />
      <polygon
         clip-path="url(#clipPath70)"
         points="374,75 376,68 381,71 "
         id="polygon552"
         style="fill:#326496;stroke:none" />
      <polygon
         clip-path="url(#clipPath70)"
         points="374,75 376,68 381,71 "
         id="polygon554"
         style="fill:none;stroke:#326496;stroke-dasharray:none" />
      <line
         clip-path="url(#clipPath71)"
         x1="376"
         x2="398"
         y1="194"
         y2="244"
         id="line556"
         style="fill:none;stroke:#326496;stroke-dasharray:none" />
      <polygon
         clip-path="url(#clipPath72)"
         points="398,244 392,239 398,236 "
         id="polygon558"
         style="fill:#326496;stroke:none" />
      <polygon
         clip-path="url(#clipPath72)"
         points="398,244 392,239 398,236 "
         id="polygon560"
         style="fill:none;stroke:#326496;stroke-dasharray:none" />
      <line
         clip-path="url(#clipPath73)"
         x1="419"
         x2="390"
         y1="156"
         y2="173"
         id="line562"
         style="fill:none;stroke:#326496;stroke-dasharray:none" />
      <polygon
         clip-path="url(#clipPath74)"
         points="390,173 395,167 398,172 "
         id="polygon564"
         style="fill:#326496;stroke:none" />
      <polygon
         clip-path="url(#clipPath74)"
         points="390,173 395,167 398,172 "
         id="polygon566"
         style="fill:none;stroke:#326496;stroke-dasharray:none" />
      <line
         clip-path="url(#clipPath75)"
         x1="82"
         x2="93"
         y1="87"
         y2="138"
         id="line568"
         style="fill:none;stroke:#326496;stroke-dasharray:none" />
      <polygon
         clip-path="url(#clipPath76)"
         points="93,138 89,132 94,131 "
         id="polygon570"
         style="fill:#326496;stroke:none" />
      <polygon
         clip-path="url(#clipPath76)"
         points="93,138 89,132 94,131 "
         id="polygon572"
         style="fill:none;stroke:#326496;stroke-dasharray:none" />
      <line
         clip-path="url(#clipPath77)"
         x1="84"
         x2="94"
         y1="211"
         y2="159"
         id="line574"
         style="fill:none;stroke:#326496;stroke-dasharray:none" />
      <polygon
         clip-path="url(#clipPath78)"
         points="94,159 96,166 90,165 "
         id="polygon576"
         style="fill:#326496;stroke:none" />
      <polygon
         clip-path="url(#clipPath78)"
         points="94,159 96,166 90,165 "
         id="polygon578"
         style="fill:none;stroke:#326496;stroke-dasharray:none" />
      <line
         clip-path="url(#clipPath79)"
         x1="406"
         x2="403"
         y1="317"
         y2="265"
         id="line580"
         style="fill:none;stroke:#326496;stroke-dasharray:none" />
      <polygon
         clip-path="url(#clipPath80)"
         points="403,265 406,272 400,272 "
         id="polygon582"
         style="fill:#326496;stroke:none" />
      <polygon
         clip-path="url(#clipPath80)"
         points="403,265 406,272 400,272 "
         id="polygon584"
         style="fill:none;stroke:#326496;stroke-dasharray:none" />
      <line
         clip-path="url(#clipPath81)"
         x1="508"
         x2="453"
         y1="111"
         y2="101"
         id="line586"
         style="fill:none" />
      <polygon
         clip-path="url(#clipPath82)"
         points="453,101 460,99 459,105 "
         id="polygon588"
         style="stroke:none" />
      <polygon
         clip-path="url(#clipPath82)"
         points="453,101 460,99 459,105 "
         id="polygon590"
         style="fill:none;stroke-dasharray:none" />
      <line
         clip-path="url(#clipPath83)"
         x1="164"
         x2="174"
         y1="287"
         y2="234"
         id="line592"
         style="fill:none;stroke:#326496;stroke-dasharray:none" />
      <polygon
         clip-path="url(#clipPath84)"
         points="174,234 176,241 170,240 "
         id="polygon594"
         style="fill:#326496;stroke:none" />
      <polygon
         clip-path="url(#clipPath84)"
         points="174,234 176,241 170,240 "
         id="polygon596"
         style="fill:none;stroke:#326496;stroke-dasharray:none" />
    </g>
  </g>
</svg>
